<?xml version="1.0" encoding="UTF-8"?>
<!DOCTYPE svg PUBLIC "-//W3C//DTD SVG 1.1//EN" "http://www.w3.org/Graphics/SVG/1.1/DTD/svg11.dtd">
<!-- Creator: CorelDRAW 2021 (64-Bit) -->
<svg xmlns="http://www.w3.org/2000/svg" xml:space="preserve" width="173.567mm" height="104.742mm" version="1.1" style="shape-rendering:geometricPrecision; text-rendering:geometricPrecision; image-rendering:optimizeQuality; fill-rule:evenodd; clip-rule:evenodd"
viewBox="0 0 15749.27 9504.18"
 xmlns:xlink="http://www.w3.org/1999/xlink"
 xmlns:xodm="http://www.corel.com/coreldraw/odm/2003">
 <defs>
  <style type="text/css">
   <![CDATA[
    .fil10 {fill:#263238;fill-rule:nonzero}
    .fil9 {fill:#455A64;fill-rule:nonzero}
    .fil3 {fill:#4C38EE;fill-rule:nonzero}
    .fil17 {fill:#A498FF;fill-rule:nonzero}
    .fil11 {fill:#ABA0FF;fill-rule:nonzero}
    .fil4 {fill:#C0B8FF;fill-rule:nonzero}
    .fil2 {fill:#C7C7C7;fill-rule:nonzero}
    .fil1 {fill:#DBDBDB;fill-rule:nonzero}
    .fil8 {fill:#E0E0E0;fill-rule:nonzero}
    .fil0 {fill:#EBEBEB;fill-rule:nonzero}
    .fil16 {fill:whitesmoke;fill-rule:nonzero}
    .fil15 {fill:#FAFAFA;fill-rule:nonzero}
    .fil7 {fill:white;fill-rule:nonzero}
    .fil12 {fill:black;fill-rule:nonzero;fill-opacity:0.090196}
    .fil13 {fill:white;fill-rule:nonzero;fill-opacity:0.090196}
    .fil5 {fill:black;fill-rule:nonzero;fill-opacity:0.101961}
    .fil18 {fill:black;fill-rule:nonzero;fill-opacity:0.160784}
    .fil19 {fill:black;fill-rule:nonzero;fill-opacity:0.250980}
    .fil6 {fill:black;fill-rule:nonzero;fill-opacity:0.321569}
    .fil14 {fill:#FAFAFA;fill-rule:nonzero;fill-opacity:0.360784}
   ]]>
  </style>
 </defs>
 <g id="Layer_x0020_1">
  <metadata id="CorelCorpID_0Corel-Layer"/>
  <g id="_1729515167440">
   <path class="fil0" d="M15290.72 3168.7c1.2,669.3 -210.79,1321.6 -605,1862.45 -318.83,438.44 -744.73,787.78 -1236.89,1014.58 -492.4,226.83 -1034.75,323.54 -1574.93,280.9 -540.42,-42.64 -1060.91,-223.21 -1511.55,-524.44 -450.63,-301.21 -816.52,-713.02 -1062.35,-1196.03 -246.08,-482.99 -363.96,-1021.04 -342.83,-1562.66 21.36,-541.62 181.5,-1068.72 464.56,-1530.87 283.29,-462.16 680.38,-843.88 1153.34,-1108.74 472.96,-264.83 1005.94,-403.89 1548.04,-403.89 86.66,0 172.86,3.27 257.36,10.3 490.73,39.25 965.6,193.07 1385.98,449.05 324.59,197.56 611.25,451.66 846.29,750.22 440.07,557.75 679.18,1247.7 678.47,1958.19l-0.48 0.93z"/>
   <path class="fil1" d="M12806.85 4664c-39.85,106.47 26.65,110.91 31.21,155.38 4.32,44.46 0,128.46 -128.69,257.41 -128.92,128.92 -341.88,102.01 -386.05,155.38 -44.17,53.35 -119.8,279.4 -226.16,354.98 -106.59,75.58 -124.36,30.9 -275.37,62.01 -150.76,31.11 -266.25,226.28 -310.42,319.43 -44.17,93.13 8.88,248.51 -97.47,252.95 -106.6,4.44 -155.57,-226.28 -253.04,-351 -97.72,-124.72 -128.69,-235.19 -159.9,-381.44 -30.97,-146.26 17.77,-452.58 0,-572.38 -17.76,-119.82 -337.07,-332.75 -452.55,-479.25 -115.24,-146.5 -275.37,-439 -266,-536.58 13.44,-94.69 60.74,-181.33 133.01,-244.07 53.29,-40.02 30.97,-62.01 39.85,-97.59 8.88,-35.55 53.29,-44.46 62.17,-88.69 8.88,-44.22 -26.65,-177.61 -70.1,-199.84 -43.45,-22.23 -75.39,53.37 -102.04,40.03 -26.65,-13.35 -106.36,-106.47 -137.57,-115.36 -31.21,-8.91 -22.09,57.78 -66.5,-26.68 -44.42,-84.48 -67.46,-297.2 -102.27,-332.78 -34.82,-35.55 -62.18,62.26 -146.45,0 -84.27,-62.23 -119.79,-181.81 -155.09,-199.6 -35.29,-17.79 -84.51,4.44 -121,-66.46 -36.49,-70.89 31.93,-199.84 0,-187.21 -32.17,12.65 -100.83,115.38 -118.6,17.79 -17.77,-97.57 88.59,-425.91 70.11,-603.28 -18.49,-177.37 44.41,-363.86 168.77,-514.81 0,0 17.52,-97.59 35.29,-159.6 17.77,-62.01 399.5,-310.76 444.63,-381.66 18.48,-29.72 24.73,-76.06 31.45,-126.14 543.3,-400.4 1200.64,-615.88 1875.75,-614.73 86.67,0 172.86,3.27 257.36,10.3 2.89,3.97 5.76,7.95 8.88,11.7 38.42,48.91 79.71,80.02 192.3,121.45 112.6,41.41 138.77,93.59 115.48,138.99 -23.53,45.4 -62.42,53.13 -106.6,56.18 -44.17,3.03 -85.7,-20.83 -133,8.88 -47.3,29.73 -93.63,189.31 -156.78,198.21 -63.38,8.88 -171.65,-142.05 -195.42,-187.21 -24.01,-45.16 53.3,-139 17.05,-183.23 -36.26,-44.23 -99.64,-35.56 -200.23,-44.46 -100.83,-8.88 -334.43,29.72 -325.54,68.11 8.88,38.36 343.08,-6.1 351,70.2 7.92,76.27 -245.6,207.08 -289.78,195.15 -44.18,-11.92 -103,-85.66 -168.77,-95.48 -65.79,-9.82 -116.93,44.46 -158.94,50.32 -42.25,5.83 -89.31,-44.25 -151.49,-32.53 -62.18,11.69 -77.06,65.06 -109.48,85.88 -32.65,20.82 -109.24,20.6 -118.12,67.86 -9.12,47.28 97.48,74.16 124.12,103.67 26.65,29.48 -32.65,130.1 -6,150.7 26.65,20.58 192.3,-124.02 233.83,-159.6 41.78,-35.56 76.83,-189.31 165.9,-187.19 88.83,2.09 118.12,153.72 147.89,168.47 29.54,14.74 93.4,-35.56 192.31,-14.75 98.67,20.84 165.41,234.01 183.17,298.83 17.77,64.82 59.3,130.12 23.29,156.8 -35.78,26.67 -194.94,-17.79 -215.6,-59.21 -20.64,-41.41 106.36,-103.66 97.47,-118.41 -8.88,-14.74 -82.83,-35.58 -121.48,-12.41 -38.65,23.17 -56.18,71.62 -97.47,83.55 -41.53,11.93 -150.77,-112.55 -180.53,-77 -29.54,35.59 29.76,147.9 59.3,174.56 29.53,26.7 139,41.2 147.89,70.22 8.88,29.01 -73.94,93.59 -174.54,88.69 -100.59,-4.92 -183.18,-82.85 -221.84,-50.32 -38.65,32.54 -17.77,118.41 -44.41,147.9 -26.65,29.48 -171.66,8.9 -242.48,85.88 -70.83,76.99 -103.48,192.14 -174.55,257.42 -71.3,65.28 -103.47,-17.56 -198.3,74.18 -94.83,91.74 -109.24,295.78 -112.36,366.68 -2.88,70.92 0,127.07 -23.28,117.02 -23.53,-10.06 -56.18,-70.2 -65.06,-109.29 -8.88,-39.08 20.64,-103.67 20.64,-127.29 0,-23.65 -136.13,-144.86 -216.07,-156.8 -79.95,-11.93 -150.77,53.36 -210.55,100.61 -60.02,47.28 -165.66,38.64 -204.07,77 -38.41,38.38 -68.18,378.63 -38.65,458.43 29.54,79.78 68.18,79.78 163.74,38.36 95.79,-41.41 41.53,-121.22 97.71,-103.42 25.22,9.5 46.82,26.5 62.18,48.71 15.36,22.2 23.53,48.57 23.29,75.55 0,46.79 -112.12,159.58 -97.47,192.11 14.64,32.54 112.59,-5.85 159.89,8.88 47.29,14.75 70.11,44.46 56.18,165.68 -14.16,121.22 -6,216 65.06,256.02 70.82,40 110.92,-57.81 141.89,-44.46 31.21,13.33 75.39,84.22 119.8,79.78 44.65,-4.44 22.32,-44.22 106.59,-70.2 84.27,-25.98 53.06,-44.46 70.11,-97.57 17.05,-53.13 70.34,-97.59 128.69,-70.2 58.58,27.37 17.77,66.67 23.53,110.92 5.52,44.22 106.36,48.9 187.26,75.58 80.67,26.67 124.12,0 284.01,53.13 159.9,53.11 168.54,212.93 235.04,239.6 66.75,26.7 288.34,-17.76 448.23,97.6 159.89,115.36 115.24,327.61 195.18,390.56 79.71,62.95 377.18,146.47 491.45,168.49 114.03,21.99 132.76,-57.57 226.15,-35.34 93.4,22.23 146.22,48.66 177.42,177.37 27.37,114.21 -319.07,351.48 -359.4,457.96z"/>
   <path class="fil1" d="M10422.85 2395.28c2.88,25.03 76.82,35.58 165.65,85.66 88.59,50.08 121.24,198.21 168.54,195.4 47.29,-2.8 32.41,-70.22 50.18,-88.92 17.76,-18.72 46.81,-56.18 0,-93.61 -46.82,-37.45 -93.63,-121.22 -179.58,-133.15 -86.19,-11.93 -101.32,-46.81 -140.45,-44.22 -9.61,0.22 -19.21,2.52 -27.86,6.77 -8.64,4.25 -16.32,10.33 -22.57,17.81 -6,7.5 -10.56,16.23 -12.96,25.6 -2.4,9.36 -2.64,19.16 -0.96,28.66z"/>
   <path class="fil1" d="M10910.94 2643.76c-13.45,36.28 0,62.01 93.62,85.64 93.63,23.65 183.42,-23.38 153.89,-42.81 -29.53,-19.42 -73.94,-10.3 -56.42,-42.83 17.53,-32.53 11.77,-80.04 -65.06,-70.2 -76.58,9.82 -114.28,37.67 -126.04,70.2z"/>
   <path class="fil1" d="M11242.01 2653.92c-32.18,4.68 -50.18,60.86 -17.53,96.42 32.41,35.58 32.41,29.48 70.11,0 37.69,-29.48 97.72,-44.46 82.83,-73.94 -14.65,-29.48 -102.75,-27.61 -135.4,-22.48z"/>
   <path class="fil1" d="M11499.37 2774.66c14.4,-44.22 88.59,0 121.24,46.82 32.41,46.79 17.77,115.36 0,165.67 -17.77,50.3 -29.53,109.5 -70.1,85.88 -40.81,-23.66 2.88,-94.79 -3.12,-136.2 -6.24,-41.41 -59.79,-125.9 -48.02,-162.18z"/>
   <path class="fil1" d="M12774.44 307.03c-15.61,37.22 56.18,50.3 97.47,73.95 41.54,23.62 73.94,38.36 97.47,0 23.77,-38.39 -8.88,-82.85 -41.3,-91.74 -32.65,-8.88 -139,-17.79 -153.65,17.78z"/>
   <path class="fil1" d="M13333.34 653.11c27.37,28.76 73.94,23.38 106.36,65.04 32.66,41.65 20.89,112.33 62.42,133.15 41.3,20.83 70.11,0 73.95,-29.73 3.59,-29.7 -59.31,-103.42 -53.55,-116.99 6.01,-13.57 85.95,20.6 103.71,65.06 17.77,44.43 -17.77,106.46 23.53,116.99 41.06,10.54 32.41,-41.41 50.18,-53.13 17.77,-11.7 56.18,-6.07 53.3,-41.41 -3.12,-35.34 -50.41,-112.55 -88.83,-138.99 -38.41,-26.46 -67.95,-56.18 -133.01,-70.22 -65.06,-14.02 -127.24,-2.8 -159.89,23.41 -32.89,26.21 -54.98,29.96 -38.17,46.81z"/>
   <path class="fil1" d="M14613.22 1210.56c-1.92,11.98 -7.69,22.98 -16.81,31.13 -62.17,44.46 -136.12,-109.52 -221.83,-139 -85.47,-29.48 -123.41,-138.77 -141.89,-115.36 -18.48,23.38 -12,56.15 -38.65,93.58 -26.65,37.46 -65.06,29.73 -82.58,103.67 -17.53,73.94 82.58,210.62 59.05,254.37 -23.28,43.76 -53.29,29.5 -100.83,26.7 -47.54,-2.81 -38.41,38.36 -100.36,20.57 -61.94,-17.77 -8.88,-93.61 -106.36,-187.19 -97.71,-93.61 -130.36,-109.53 -109.48,-150.94 21.13,-41.41 -9.12,-100.4 35.53,-106.47 44.42,-6.07 79.71,59.21 109.24,76.99 29.53,17.77 67.94,-35.58 70.1,-82.85 2.17,-47.27 -103.71,-112.31 -141.88,-149.07 -38.42,-36.73 -41.54,-170.34 -26.9,-197.03 14.89,-26.67 59.3,-17.77 70.35,-82.83 6.71,-38.15 -53.55,-102.04 -104.92,-148.37 325.55,197.95 612.69,452.67 848.21,752.1z"/>
   <path class="fil1" d="M15054.96 3862.55c8.88,-94.78 -38.41,-100.61 8.88,-275.2 47.29,-174.56 -50.41,-360.84 -85.95,-399.21 -35.53,-38.38 -112.36,-26.67 -174.54,11.7 -62.18,38.39 -17.53,68.11 -59.31,82.85 -41.53,14.74 -82.58,-8.91 -121.24,-5.86 -38.41,3.05 -73.94,100.38 -156.77,97.57 -82.84,-2.79 -135.89,-121.19 -197.83,-205.68 -62.18,-84.49 -189.66,-137.38 -230.72,-241.04 -41.29,-103.67 38.17,-263.25 20.41,-384.47 -17.77,-121.21 -97.47,-94.78 -112.12,-163.8 -14.88,-69.03 11.52,-35.56 32.41,-100.62 20.89,-65.06 -23.28,-100.62 17.77,-212.95 41.3,-112.32 115.48,-168.73 97.72,-218.79 -18.01,-50.08 -73.94,-133.15 -77.06,-192.14 -3.12,-58.96 56.18,-56.39 168.53,-140.39 112.36,-84.01 141.89,-77 227.84,-46.79 61.47,22.88 124.85,40.71 189.43,53.35 50.18,8.88 118.36,139 139,133.15 20.41,-5.86 23.29,-44.46 32.41,-100.62 5.76,-24.44 18.48,-46.62 36.98,-63.64 333.95,535.42 500.33,1158.31 478,1788.91 -22.32,630.59 -232.39,1240.16 -603.08,1750.67 301.78,-458.89 361.08,-1072.44 369.24,-1166.99z"/>
   <polygon class="fil2" points="10220.46,1370.35 10215.42,1353.5 10238.71,1346.95 10243.75,1363.8 "/>
   <path class="fil2" d="M14412.75 2068.61l-33.85 -32.53 12.25 -12.63 33.85 32.75 -12.24 12.41zm-67.95 -64.58l-35.05 -31.39 11.77 -13.08c11.76,10.28 23.53,20.82 35.05,31.58l-11.77 12.89zm-70.34 -62.26l-35.77 -30.42 11.28 -13.59 36.01 30.66 -11.52 13.35zm-72.26 -60.14c-12.25,-9.85 -23.29,-19.66 -36.73,-29.26l10.8 -13.81 36.98 29.27 -11.04 13.8zm-74.19 -57.81l-37.69 -27.85 10.33 -14.26 37.93 28.09 -10.56 14.02zm-75.87 -55.21l-38.65 -26.91 9.84 -14.51 38.9 26.91 -10.09 14.51zm-77.55 -52.89c-13.44,-8.65 -26.41,-17.31 -39.61,-25.5l9.36 -14.98 39.85 25.73 -9.61 14.75zm-79.71 -50.54l-40.09 -23.4 9.12 -15.2 40.33 23.38 -9.36 15.22zm-80.67 -46.81l-41.05 -23.38 8.64 -15.46 41.06 23.41 -8.65 15.43zm-82.58 -46.1l-41.78 -21.75 8.16 -15.46c13.93,7.03 28.09,14.28 41.78,21.78l-8.16 15.43zm-83.79 -42.81c-13.93,-7.03 -28.09,-13.83 -42.02,-20.35l7.45 -15.92 42.49 20.6 -7.92 15.67zm-84.75 -40.26l-42.97 -19.42 7.2 -15.92 42.98 19.2 -7.2 16.13zm-86.19 -37.9c-14.4,-6.32 -28.81,-12.18 -43.45,-18.01l6.72 -16.4c14.65,5.93 29.05,12.03 43.7,18.27l-6.97 16.13zm-86.91 -35.56l-43.69 -16.64 6.24 -16.37 43.94 16.85 -6.49 16.16zm-87.63 -32.77l-44.42 -15.67 6.01 -16.61 44.41 15.68 -6 16.61zm-88.59 -30.65l-44.65 -14.29 5.28 -16.82 44.65 14.5 -5.28 16.61zm-2925.14 0l-4.56 -16.86 45.61 -12.39 4.32 17.07 -45.37 12.18zm90.98 -23.41l-4.08 -17.07 46.82 -11.23 4.08 17.09 -46.82 11.22zm2745.56 -3.27l-45.38 -13.35 5.05 -16.83 45.13 13.33 -4.8 16.85zm-2653.85 -18.73l-3.84 -17.07 46.81 -10.53 3.6 17.1 -46.58 10.51zm2562.86 -9.12c-15.13,-3.98 -30.01,-8.18 -45.38,-11.93l4.56 -17.1 45.38 12.18 -4.56 16.85zm-2471.62 -13.35l-3.6 -17.07 46.81 -9.82 3.36 17.3 -46.57 9.58zm2380.88 -10.27l-46.82 -11.02 4.08 -17.07c15.13,3.75 30.49,7.25 46.82,11.23l-4.08 16.86zm-2288.45 -8.67l-3.6 -17.3 46.81 -8.91 3.37 17.33 -46.58 8.88zm2197.22 -12.62l-46.82 -10.09 3.85 -17.07 46.81 10.06 -3.84 17.1zm-2105.99 -4.93l-3.12 -17.3 46.82 -8.21 2.88 17.33 -46.58 8.18zm2012.36 -14.5l-46.81 -8.9 3.36 -17.31c15.36,3.05 30.97,5.86 46.81,9.12l-3.36 17.1zm-1918.72 -1.65l-3.12 -17.31 46.81 -7.73 2.64 17.33 -46.33 7.71zm93.39 -14.75l-2.4 -17.55 46.81 -6.77 2.16 17.31 -46.58 7.01zm1734.59 0l-46.82 -7.7 2.89 -17.33 46.81 7.72 -2.88 17.31zm-1641.2 -12.63l-2.4 -17.3 46.81 -6.34 1.92 17.58 -46.34 6.07zm1548.28 -2.57l-46.81 -6.79 2.64 -17.31 46.81 6.77 -2.64 17.33zm-1454.88 -9.36l-2.16 -18.03 46.58 -5.37 2.16 17.3 -46.58 6.1zm1361.73 -3.74l-46.81 -5.86 2.16 -17.31 46.82 5.86 -2.17 17.31zm-1268.1 -7.04l-1.92 -17.3 46.81 -4.9 1.68 17.55 -46.57 4.65zm1174.71 -4.2l-46.81 -4.92 1.68 -17.55 46.81 4.92 -1.68 17.55zm-1081.08 -4.92l-1.43 -17.55 46.81 -3.97 1.44 17.31 -46.82 4.2zm987.21 -4.44l-46.81 -3.99 1.43 -17.55 46.82 3.98 -1.44 17.56zm-893.34 -3.51l-1.2 -17.3 46.82 -3.53 1.2 17.55 -46.82 3.28zm799.47 -3.98l-46.58 -3.02 0 -17.55 46.58 3.02 0 17.55zm-705.36 -2.33l-1.2 -17.55 46.81 -2.57 0 17.55 -45.61 2.57zm611.73 -3.5l-46.81 -2.11 0 -17.55 46.81 2.33 0 17.33zm-517.61 -1.42l0 -17.55 46.58 -1.87 0 17.55 -46.58 1.87zm423.5 -2.33c-15.6,0 -31.21,-0.48 -46.81,-1.42l0 -17.55c15.61,0 31.45,0 46.81,1.42l0 17.55zm-329.63 0l0 -17.55 46.81 0 0 17.55 -46.81 0zm235.52 -1.42l-46.82 0 0 -17.55 46.82 0 0 17.55zm-140.45 0l0 -19.66 46.81 0 0 17.55 -46.81 2.11z"/>
   <polygon class="fil2" points="14464.13,2120.32 14448.04,2103.7 14460.29,2091.32 14476.61,2108.15 "/>
   <path class="fil2" d="M10931.58 3278.47c-1.68,-8.4 -2.4,-16.95 -1.92,-25.52l17.53 0c-0.48,7.16 0.24,14.29 1.44,21.3l-17.05 4.23z"/>
   <path class="fil2" d="M10948.87 3206.58l-17.77 0c0,-12.65 1.68,-26.67 2.64,-42.13l0 -4.9 17.53 1.15 0 4.68c0.24,14.53 -1.92,28.55 -2.4,41.2zm5.76 -93.61l-17.52 -1.17c0,-14.75 1.91,-30.18 2.64,-46.79l17.52 0c-0.72,17.55 -1.68,33.23 -2.64,47.96zm4.8 -93.61l-17.52 0c0,-14.98 0,-30.66 1.43,-46.79l17.53 0c-0.24,15.68 -0.96,31.36 -1.44,46.56l0 0.24zm2.4 -93.61l-17.53 0c0,-11.93 0,-23.38 0,-36.28l0 -10.52 17.53 0 0 10.52c0.24,11.23 0.24,23.41 0,35.34l0 0.93zm-17.77 -93.61c0,-15.2 0,-30.88 -1.44,-46.79l17.53 0c0,16.16 0,31.84 1.43,46.79l-17.52 0zm-3.6 -93.59c0,-15.22 -1.68,-30.9 -2.89,-46.81l17.53 -1.39c1.2,15.92 2.16,31.6 2.88,46.79l-17.52 1.42zm-6.96 -93.61c-1.44,-15.22 -3.12,-30.65 -4.56,-46.81l17.29 -2.09c1.92,15.92 3.36,31.35 4.8,46.79l-17.52 2.11zm-10.57 -93.61c-1.91,-15.22 -4.07,-30.65 -6.48,-46.79l17.29 -2.6c2.4,15.68 4.8,31.13 6.72,46.81l-17.53 2.57zm-14.16 -93.61c-2.88,-15.2 -6,-30.42 -8.88,-46.79l17.29 -3.5c3.12,15.43 6.01,30.88 8.65,46.79l-17.05 3.5zm-18.72 -91.49c-3.37,-15.2 -6.97,-30.42 -10.81,-45.64l17.05 -4.2c3.84,15.43 7.44,30.66 11.04,46.79l-17.29 3.05zm-23.53 -90.8c-4.08,-14.74 -8.65,-29.72 -12.97,-44.68l16.57 -5.15c4.56,14.98 9.12,30.2 13.44,45.15l-17.04 4.68zm-27.37 -89.14c-4.81,-14.66 -10.09,-29.41 -15.37,-44.24l16.57 -6.07c5.52,14.98 10.56,29.72 15.61,44.7l-16.8 5.62zm-31.93 -87.74c-5.76,-14.53 -11.52,-29.03 -17.77,-43.31l16.08 -6.77c6.24,14.5 12.25,29 18.01,43.53l-16.32 6.55zm-36.74 -85.9c-6.71,-14.02 -13.2,-28.07 -20.16,-42.11l15.61 -7.97c6.96,14.28 13.92,28.56 20.41,42.59l-15.85 7.49zm-41.77 -83.53c-7.2,-13.58 -14.65,-27.39 -23.29,-40.96l15.13 -8.67c7.92,13.81 15.61,27.39 23.53,41.2l-15.36 8.42zm-46.82 -80.98c-8.16,-13.11 -16.32,-26.2 -24.96,-39.3l14.65 -9.61c8.88,13.11 17.29,26.43 25.44,39.78l-15.13 9.13zm-51.38 -77.94c-8.88,-12.62 -18,-25.02 -27.37,-37.67l13.93 -10.52c9.6,12.63 18.72,25.26 27.85,38.13l-14.41 10.05zm-55.94 -74.4c-9.84,-12.17 -19.68,-23.41 -29.76,-36.03l13.44 -11.24c10.33,11.93 20.17,23.41 29.77,36.28l-13.45 11zm-60.5 -70.2c-10.56,-11.48 -21.12,-23.41 -32.17,-34.16l12.72 -12.18c11.04,11.38 21.85,22.86 32.17,34.41l-12.72 11.93zm-65.06 -67.17c-11.04,-10.76 -22.33,-21.3 -34.09,-31.81l12 -13.11 34.33 32.29 -12.24 12.63zm-68.91 -62.95c-11.76,-10.05 -23.28,-19.88 -35.77,-29.93l11.28 -13.59c12,10.09 23.29,20.14 36.01,30.21l-11.52 13.32zm-72.26 -58.73c-12.49,-9.36 -24.96,-18.72 -37.69,-27.85l10.33 -14.28 37.93 28.09 -10.56 14.04z"/>
   <polygon class="fil2" points="10232.46,1382.26 10213.02,1369.15 10222.86,1354.63 10242.31,1367.74 "/>
   <path class="fil2" d="M10981.28 3174.75l-12.72 -11.93c0,0 5.28,-6.1 16.08,-17.1l12.73 12.18c-10.57,10.75 -15.85,16.61 -16.09,16.85z"/>
   <path class="fil2" d="M11030.5 3124.72l-12.49 -12.63 34.34 -32.77 12.24 12.65 -34.09 32.75zm68.66 -64.58l-11.52 -13.11c10.81,-10.05 23.28,-20.6 35.53,-31.6l11.28 13.35c-12.24,11 -24.25,21.3 -35.29,31.36zm70.34 -62.26l-11.28 -13.32c11.76,-9.85 23.28,-20.13 36.49,-30.42l11.04 13.57 -36.25 30.18zm72.99 -59.9l-11.05 -13.81 37.46 -29.48 10.81 14.05c-12,9.82 -24.01,20.82 -36.26,29.25l-0.95 0zm74.66 -58.03l-10.56 -14.05c12.24,-9.36 24.97,-18.73 37.93,-28.3l10.56 14.02c-12.24,9.6 -24.96,18.96 -36.97,28.33l-0.96 0zm76.1 -56.16l-10.32 -14.28 38.65 -27.37 10.09 14.5 -38.42 27.15zm77.31 -54.06l-9.85 -14.5 39.37 -26.46 9.61 14.75c-12.49,8.67 -25.21,17.55 -38.17,26.21l-0.96 0zm78.74 -52.19l-9.36 -14.75 39.85 -25.5 9.36 14.98 -39.85 25.26zm79.95 -50.3l-9.13 -14.75 40.81 -23.41 8.88 14.98 -40.57 23.17zm81.15 -48.21l-8.88 -15.23 41.53 -23.38 8.4 15.2 -41.05 23.41zm82.35 -46.79l-8.4 -15.46 41.78 -23.38 8.16 15.43 -41.53 23.41zm83.31 -44.46l-8.17 -15.68 42.5 -21.53 7.92 15.68c-13.45,7.49 -27.38,14.74 -41.3,21.99l-0.96 -0.45zm84.27 -42.59l-7.69 -15.67 42.74 -20.61 7.69 15.92 -42.74 20.35zm85.47 -40.5l-7.2 -15.9 42.97 -19.66 7.2 16.13 -42.97 19.43zm86.43 -38.36l-7.2 -16.16 43.7 -18.7 6.72 16.37 -43.22 18.49zm86.91 -36.52l-6.48 -16.37 43.94 -17.55 6.23 16.37 -43.69 17.55zm88.11 -34.37l-6.48 -16.64 44.65 -16.37 6.01 16.37c-14.16,5.86 -28.81,11.48 -42.5,17.1l-1.68 -0.45zm88.59 -32.53l-5.76 -16.61 44.9 -15.46 5.53 16.61 -44.66 15.46zm89.31 -30.21l-5.28 -16.83 45.13 -14.28 5.28 16.61 -45.13 14.5zm90.27 -28.3l-5.04 -16.86 45.37 -13.32 5.05 16.83 -45.38 13.35zm90.75 -26.22l-4.8 -16.85 46.82 -12.39 4.56 17.07 -46.58 12.17zm91.24 -23.38l-4.33 -17.09 46.82 -11.24 4.08 17.1c-14.89,3.5 -30.5,7.25 -45.62,11.23l-0.95 0zm91.95 -22.01l-3.84 -17.07 46.58 -10.3 3.84 17.31 -46.58 10.05zm93.63 -19.64l-3.6 -17.33 46.81 -9.13 3.37 17.31c-16.09,2.8 -31.7,5.85 -46.82,9.15l0.24 0zm93.63 -17.79l-3.12 -17.3 46.81 -7.98 2.89 17.31 -46.58 7.97zm93.62 -15.46l-2.64 -17.3 46.82 -7.01 2.64 17.31 -46.82 7.01zm1270.27 -7.01l-46.81 -6.08 2.4 -17.55 46.81 6.32 -2.4 17.31zm-1179.03 -6.32l-2.4 -17.55 46.81 -5.86 2.16 17.55 -46.57 5.86zm1083.24 -5.62l-46.82 -5.14 1.92 -17.34 46.81 5.16 -1.91 17.31zm-989.62 -5.62l-1.91 -17.55 46.81 -4.93 1.68 17.55 -46.58 4.93zm895.5 -4.2l-46.81 -4.23 1.68 -17.55 46.81 4.23 -1.68 17.55zm-800.67 -3.99l-1.43 -17.55 46.81 -3.74 0 17.3 -45.38 3.98zm707.28 -3.05l-46.82 -3.26 1.21 -17.56 46.81 3.27 -1.2 17.55zm-613.41 -4.2l0 -17.33c15.84,0 31.45,-2.09 46.81,-2.79l0 17.55 -46.81 2.57zm519.29 -1.87l-46.81 -2.35 0 -17.55 46.81 2.35 0 17.55zm-424.94 -3.05l0 -17.55 46.81 -1.63 0 17.55 -46.81 1.63zm330.59 -1.18l-46.82 -1.39 0 -17.55 46.82 1.39 0 17.55zm-236 -1.63l0 -17.55c15.85,0 31.7,0 46.82,0l0 17.55c-15.37,-1.62 -31.21,-1.39 -46.82,-0.93l0 0.93zm141.65 0l-46.82 0 0 -17.55 46.82 0 0 17.55z"/>
   <polygon class="fil2" points="14469.17,2122.91 14446.12,2119.4 14448.76,2102.1 14471.81,2105.6 "/>
   <path class="fil2" d="M12028.03 3693.59l-17.29 -3.02c0,0 1.44,-7.98 3.37,-23.41l17.29 2.33c-1.69,15.92 -3.37,24.1 -3.37,24.1z"/>
   <polygon class="fil2" points="10238.23,1376.88 10215.66,1370.33 10220.22,1353.5 10243.03,1360.05 "/>
   <polygon class="fil2" points="14449.72,2127.64 14445.88,2110.33 14469.17,2105.65 14472.53,2122.96 "/>
   <polygon class="fil2" points="11577.88,5364.46 11574.51,5387.6 11591.8,5390.12 11595.16,5366.95 "/>
   <path class="fil2" d="M11594.2 5378l-16.8 -4.45c3.84,-15.22 7.92,-30.2 11.76,-45.18l16.8 4.22c-3.59,14.98 -7.44,30.66 -11.76,45.41zm22.33 -91.28l-17.05 -3.74c3.12,-15.2 6.24,-30.42 9.36,-45.62l17.04 3.27c-2.88,15.46 -6,30.66 -9.36,46.1zm17.77 -93.58l-17.53 -2.81c2.4,-15.22 4.8,-30.65 6.96,-46.81l17.29 2.35c-2.16,17.55 -4.56,32.99 -6.71,48.43l0 -1.15zm12.48 -93.61l-17.52 -1.88c1.92,-15.46 3.36,-30.9 4.56,-46.81l17.52 1.42c-1.2,17.79 -2.88,33.46 -4.56,48.91l0 -1.63zm7.92 -93.61l-17.52 0c0,-15.68 1.44,-31.11 1.92,-46.79l17.52 0c-0.48,16.51 -1.44,32.68 -2.88,48.43l0.95 -1.63zm2.89 -93.61l-17.52 0 0 -11.7c0,-11.71 0,-23.41 0,-34.88l17.52 0c0,11.71 0,23.4 0,35.12l0 11.46zm-19.21 -93.62c0,-15.43 -1.68,-31.11 -2.4,-46.79l17.29 -1.18c0.96,15.61 1.91,31.21 2.64,46.81l-17.53 1.15zm-6.48 -93.58c-1.44,-15.61 -3.12,-31.21 -4.8,-46.81l17.52 -2.11c1.68,15.67 3.37,31.13 4.8,46.81l-17.52 2.11zm-10.81 -93.61c-2.4,-15.46 -4.56,-30.9 -7.2,-46.82l17.29 -2.8c2.64,15.22 5.04,30.9 7.2,46.81l-17.29 2.81zm-14.16 -87.29c-3.12,-15.2 -6.24,-30.42 -9.36,-45.64l17.05 -3.75c3.36,15.23 6.48,30.66 9.36,46.82l-17.05 2.57zm-19.68 -91.04l-11.29 -45.16 16.8 -4.45c4.08,14.98 7.69,30.18 11.52,45.41l-17.04 4.2zm-23.53 -90.09c-4.08,-15.22 -8.65,-29.96 -13.2,-44.94l16.8 -5.14c4.56,14.98 8.88,29.96 13.44,45.16l-17.04 4.92zm-27.61 -89.16c-4.56,-14.98 -9.85,-29.73 -14.88,-44.23l16.56 -5.85c5.28,14.74 10.33,29.5 15.37,44.46l-17.05 5.62zm-30.73 -87.99c-5.76,-14.75 -11.28,-29 -17.04,-43.53l16.32 -6.55c5.76,14.52 11.52,29.26 17.05,44l-16.33 6.08zm-34.81 -86.57c-6.01,-14.5 -12.24,-28.78 -18.48,-42.83l16.08 -7.25c6.24,14.28 12.49,28.55 18.73,43.28l-16.32 6.8zm-37.69 -85.42c-6.72,-14.05 -13.45,-28.07 -20.17,-42.11l15.85 -7.73c6.72,14.05 13.68,28.09 20.16,42.59l-15.84 7.25zm-41.05 -83.76c-6.97,-14.05 -14.16,-27.85 -21.61,-41.41l15.61 -8.21c7.2,13.58 14.41,27.63 21.6,41.65l-15.6 7.98zm-43.7 -82.37l-23.53 -40.71 15.13 -8.67c7.92,13.28 15.61,26.84 23.29,40.72l-14.89 8.67zm-46.81 -80.98c-7.92,-13.57 -16.32,-26.9 -23.53,-39.79l15.13 -9.34c8.16,13.08 16.32,26.43 23.28,40.24l-14.88 8.88zm-49.22 -79.32c-8.65,-13.33 -17.05,-26.2 -25.69,-39.09l14.65 -9.57 25.69 39.08 -14.65 9.58zm-53.3 -79.32c-8.88,-13.11 -18,-25.73 -26.65,-38.15l13.93 -10.3c9.12,12.4 18,25.28 27.13,38.38l-14.41 10.06zm-54.25 -76.06l-28.09 -37.21 13.92 -10.76 28.09 37.67 -13.92 10.3zm-56.9 -74.19l-29.29 -36.25 13.68 -11.23c9.6,11.45 19.21,23.38 29.29,36.73l-13.68 10.75zm-59.3 -72.28l-30.02 -34.89 13.21 -11.45c9.6,10.52 19.93,23.38 30.97,35.56l-14.16 10.78zm-61.95 -70.22c-20.41,-22 -32.4,-33.45 -32.4,-33.69l12.24 -12.4c0,0 12.24,11.71 33.13,34.16l-12.97 11.93z"/>
   <path class="fil3" d="M10416.61 1030.61c-9.85,-99.22 -78.27,-198.21 -198.55,-198.21 -120.28,0 -188.7,98.99 -198.55,198.21 -15.13,153.27 88.34,292.28 198.55,418.87 110.44,-126.59 213.91,-265.6 198.55,-418.87zm-198.55 110.2c-21.6,0 -42.74,-6.39 -60.5,-18.35 -18,-11.98 -31.93,-28.97 -40.09,-48.88 -8.17,-19.87 -10.33,-41.77 -6.24,-62.9 4.32,-21.1 14.65,-40.5 30.01,-55.7 15.13,-15.23 34.57,-25.57 55.7,-29.73 21.13,-4.17 42.98,-1.99 62.91,6.3 19.93,8.26 36.73,22.25 48.74,40.16 12,17.93 18.24,38.99 18.24,60.52 0,28.81 -11.52,56.45 -31.93,76.78 -20.4,20.35 -48.01,31.79 -76.82,31.79z"/>
   <path class="fil3" d="M14659.31 1710.71c-9.85,-99.22 -78.27,-198.21 -198.56,-198.21 -120.27,0 -188.7,98.99 -198.55,198.21 -15.12,153.27 88.35,292.28 198.55,418.87 110.44,-126.59 213.92,-265.6 198.56,-418.87zm-198.56 110.22c-21.6,0 -42.73,-6.38 -60.5,-18.37 -18,-11.95 -31.93,-28.97 -40.1,-48.88 -8.16,-19.87 -10.32,-41.77 -6.23,-62.9 4.32,-21.1 14.64,-40.5 30.01,-55.7 15.13,-15.22 34.57,-25.54 55.7,-29.73 21.12,-4.17 42.97,-1.99 62.9,6.3 19.93,8.26 36.73,22.25 48.74,40.16 12,17.94 18.25,38.99 18.25,60.52 0,28.81 -11.52,56.45 -31.93,76.8 -20.41,20.33 -48.02,31.79 -76.83,31.79z"/>
   <path class="fil3" d="M11105.16 2918.73c-9.84,-99.22 -78.51,-198.21 -198.78,-198.21 -120.28,0 -188.7,98.99 -198.31,198.21 -15.36,153.27 88.11,292.27 198.31,418.87 110.44,-127.3 213.91,-265.6 198.78,-418.87zm-198.78 110.22c-21.6,0 -42.49,-6.39 -60.5,-18.35 -17.77,-11.95 -31.69,-28.95 -40.09,-48.83 -8.17,-19.88 -10.33,-41.78 -6.01,-62.88 4.08,-21.1 14.41,-40.5 29.77,-55.72 15.13,-15.19 34.57,-25.56 55.7,-29.76 21.12,-4.2 42.97,-2.04 62.9,6.19 19.68,8.24 36.73,22.19 48.74,40.07 12,17.91 18.24,38.95 18.24,60.45 0,28.86 -11.28,56.54 -31.69,76.95 -20.41,20.41 -48.26,31.89 -77.06,31.89z"/>
   <path class="fil4" d="M11780.99 5130.32c-9.85,-99.46 -78.51,-198.21 -198.79,-198.21 -120.28,0 -188.47,98.75 -198.31,198.21 -15.36,153.27 88.12,292.03 198.31,418.87 110.44,-126.84 213.91,-265.6 198.79,-418.87zm-197.59 110.22c-21.36,-0.05 -42.49,-6.48 -60.26,-18.46 -18,-11.99 -31.93,-29 -40.09,-48.88 -8.17,-19.88 -10.33,-41.75 -6.01,-62.85 4.08,-21.08 14.65,-40.45 29.77,-55.65 15.13,-15.2 34.57,-25.54 55.7,-29.73 21.13,-4.17 42.98,-1.99 62.91,6.24 19.93,8.24 36.73,22.19 48.74,40.07 12,17.88 18.24,38.92 18.24,60.43 0,14.31 -2.64,28.49 -8.16,41.7 -5.53,13.22 -13.45,25.23 -23.77,35.33 -10.08,10.11 -22.09,18.1 -35.29,23.56 -13.2,5.47 -27.37,8.26 -41.78,8.23z"/>
   <path class="fil0" d="M7848.23 9504.18c4237.41,0 7672.49,-187.43 7672.49,-418.62 0,-231.22 -3435.07,-418.65 -7672.49,-418.65 -4237.57,0 -7672.73,187.43 -7672.73,418.65 0,231.19 3435.16,418.62 7672.73,418.62z"/>
   <polygon class="fil4" points="13547.02,7800.74 11832.85,7800.74 11832.85,9167.35 13547.02,9167.35 "/>
   <polygon class="fil5" points="13547.02,7800.74 11832.85,7800.74 11832.85,9167.35 13547.02,9167.35 "/>
   <polygon class="fil4" points="10947.67,9167.42 11832.85,9167.42 11832.85,7800.81 10947.67,7800.81 "/>
   <polygon class="fil6" points="10947.67,9167.42 11832.85,9167.42 11832.85,7800.81 10947.67,7800.81 "/>
   <polygon class="fil7" points="12544.44,8096.07 12580.69,8096.07 12608.07,8096.07 12623.66,8073.35 12645.51,8096.07 12675.04,8049.25 12703.13,8096.07 12783.32,8096.07 12819.82,8096.07 12833.02,8064.92 12845.74,8096.07 12869.51,8096.07 12869.51,7800.74 12544.44,7800.74 "/>
   <path class="fil4" d="M11008.65 9073.31c65.06,-97.34 130.13,-194.84 195.19,-292.51l192.06 -293.91 189.19 -294.14c63.14,-98.43 125.32,-197.35 186.54,-296.72 -65.07,97.33 -129.88,194.84 -194.94,292.49l-192.07 293.93 -189.18 295.3c-62.66,97.83 -124.85,196.33 -186.79,295.56z"/>
   <path class="fil4" d="M11008.65 7894.85c61.7,99.22 123.89,198.11 186.79,296.72l189.42 295.32 192.07 293.91c65.06,97.81 130.12,195.32 195.19,292.51 -61.7,-99.22 -123.89,-198.14 -186.79,-296.71l-189.43 -295.33 -192.06 -293.9c-64.59,-97.83 -129.65,-195.33 -195.19,-292.52z"/>
   <polygon class="fil4" points="14340.48,6434.15 12626.31,6434.15 12626.31,7800.77 14340.48,7800.77 "/>
   <polygon class="fil5" points="14340.48,6434.15 12626.31,6434.15 12626.31,7800.77 14340.48,7800.77 "/>
   <polygon class="fil4" points="11741.37,7800.98 12626.55,7800.98 12626.55,6434.37 11741.37,6434.37 "/>
   <polygon class="fil6" points="11741.37,7800.98 12626.55,7800.98 12626.55,6434.37 11741.37,6434.37 "/>
   <polygon class="fil7" points="13338.39,6729.48 13374.4,6729.48 13401.77,6729.48 13417.38,6706.77 13438.98,6729.48 13468.75,6682.66 13496.6,6729.48 13576.79,6729.48 13613.52,6729.48 13626.97,6698.34 13639.21,6729.48 13662.97,6729.48 13662.97,6434.15 13338.39,6434.15 "/>
   <path class="fil4" d="M11802.35 7706.63c64.82,-97.19 129.88,-194.68 194.95,-292.52l192.06 -293.9 190.87 -295.08c63.14,-98.75 125.32,-197.66 187.02,-296.72 -65.07,97.04 -130.13,194.46 -195.19,292.27l-192.07 293.9 -189.9 295.33c-63.63,98.6 -126.28,197.48 -187.75,296.72z"/>
   <path class="fil4" d="M11802.35 6528.41c61.7,99.22 123.89,198.11 186.54,296.72l189.43 295.08 192.07 293.9c65.06,97.83 130.12,195.32 195.18,292.52 -61.69,-99.23 -124.12,-198.12 -187.02,-296.72l-189.42 -295.33 -192.07 -293.9c-64.1,-97.81 -128.92,-195.23 -194.71,-292.27z"/>
   <polygon class="fil4" points="15749.27,7800.74 14035.1,7800.74 14035.1,9167.35 15749.27,9167.35 "/>
   <polygon class="fil5" points="15749.27,7800.74 14035.1,7800.74 14035.1,9167.35 15749.27,9167.35 "/>
   <polygon class="fil4" points="13149.92,9167.42 14035.1,9167.42 14035.1,7800.81 13149.92,7800.81 "/>
   <polygon class="fil6" points="13149.92,9167.42 14035.1,9167.42 14035.1,7800.81 13149.92,7800.81 "/>
   <polygon class="fil7" points="14746.7,8096.07 14783.19,8096.07 14810.56,8096.07 14826.17,8073.35 14847.77,8096.07 14877.31,8049.25 14905.39,8096.07 14985.58,8096.07 15022.32,8096.07 15035.52,8064.92 15048,8096.07 15071.77,8096.07 15071.77,7800.74 14746.7,7800.74 "/>
   <path class="fil4" d="M13211.15 9073.31c65.06,-97.34 129.88,-194.84 194.94,-292.51l192.07 -293.91 189.42 -294.14c62.9,-98.43 125.08,-197.35 186.54,-296.72 -65.06,97.33 -130.12,194.84 -195.18,292.49l-192.07 293.93 -189.18 295.3c-62.66,97.83 -124.84,196.33 -186.54,295.56z"/>
   <path class="fil4" d="M13211.15 7894.85c61.46,99.22 123.64,198.11 186.54,296.72l189.43 295.32 190.86 293.91c65.06,97.81 130.12,195.32 195.19,292.51 -61.7,-99.22 -123.89,-198.14 -186.79,-296.71l-189.43 -295.33 -192.06 -293.9c-63.86,-97.83 -128.44,-195.33 -193.75,-292.52z"/>
   <path class="fil8" d="M7357.74 4074.5c3.12,0 5.76,-181.29 5.76,-404.78 0,-223.52 -2.64,-404.63 -5.76,-404.63 -3.12,0 -5.52,181.12 -5.52,404.63 0,223.49 2.64,404.78 5.52,404.78z"/>
   <path class="fil8" d="M7357.74 5140.36c3.12,0 5.76,-181.14 5.76,-404.63 0,-223.49 -2.64,-404.8 -5.76,-404.8 -3.12,0 -5.52,181.31 -5.52,404.8 0,223.49 2.64,404.63 5.52,404.63z"/>
   <path class="fil8" d="M7357.74 6206.3c3.12,0 5.76,-181.29 5.76,-404.81 0,-223.49 -2.64,-404.61 -5.76,-404.61 -3.12,0 -5.52,181.12 -5.52,404.61 0,223.52 2.64,404.81 5.52,404.81z"/>
   <path class="fil8" d="M7357.74 7272.08c3.12,0 5.76,-181.14 5.76,-404.63 0,-223.49 -2.64,-404.63 -5.76,-404.63 -3.12,0 -5.52,181.14 -5.52,404.63 0,223.49 2.64,404.63 5.52,404.63z"/>
   <path class="fil8" d="M7357.74 8338.04c3.12,0 5.76,-181.12 5.76,-404.63 0,-223.49 -2.64,-403.96 -5.76,-403.96 -3.12,0 -5.52,181.14 -5.52,404.81 0,223.65 2.64,403.79 5.52,403.79z"/>
   <path class="fil9" d="M6559.47 3880.16l-6089.37 0c-259.62,0 -470.1,210.45 -470.1,470.1l0 3879.05c0,259.62 210.48,470.08 470.1,470.08l6089.37 0c259.77,0 470.08,-210.46 470.08,-470.08l0 -3879.05c0,-259.65 -210.32,-470.1 -470.08,-470.1z"/>
   <path class="fil10" d="M6530.66 4100.16l-6048.1 0c-164.75,0 -298.28,133.56 -298.28,298.28l0 3790.99c0,164.75 133.53,298.28 298.28,298.28l6048.1 0c164.7,0 298.19,-133.53 298.19,-298.28l0 -3790.99c0,-164.72 -133.49,-298.28 -298.19,-298.28z"/>
   <polygon class="fil7" points="6455.28,4374.65 558.04,4374.65 558.04,8064.59 6455.28,8064.59 "/>
   <path class="fil8" d="M6455.28 6448.01c-17.77,-14.62 -5897.24,-11.62 -5897.24,-11.62l0 263.21 5897.24 11.64 0 -263.22z"/>
   <polygon class="fil8" points="1798.41,4374.65 1012.95,5457.25 698.55,5457.25 1541.87,4374.65 "/>
   <polygon class="fil8" points="2522.17,4374.65 1726.37,6016.56 3484.63,6016.56 6455.28,5574.38 6455.28,5790.23 3518.66,6278.1 3510.19,6197.02 558.04,6197.02 558.04,5989.48 1361.13,5989.48 2224.87,4374.65 "/>
   <polygon class="fil8" points="3783.64,4374.65 3773.34,8064.59 3119.29,8064.59 3494.85,4374.65 "/>
   <polygon class="fil8" points="3416.49,5371.56 558.04,5371.56 558.04,5623.47 3416.49,5623.47 "/>
   <polygon class="fil11" points="558.04,5415.04 3714.09,5415.04 3671.55,8064.59 3289.36,8064.59 3446.4,5561.27 558.04,5561.27 "/>
   <polygon class="fil8" points="4545.56,4374.65 4740.82,5069.73 4554.87,5104.3 4478.44,4837.26 3714.07,4837.26 3773.39,4726.42 4453.01,4726.42 4376.57,4374.65 "/>
   <polygon class="fil8" points="6455.28,5037.71 3773.39,5371.54 3714.07,5202.37 6455.28,4837.31 "/>
   <polygon class="fil8" points="5682.82,5133.91 6455.28,5385.65 6455.28,5511.94 5409.83,5167.8 "/>
   <polygon class="fil8" points="4968.46,5217.81 6220.24,5614.47 5951.83,5679.94 4692.94,5251.06 "/>
   <polygon class="fil8" points="4968.99,6040.14 5465.52,8064.59 5090.64,8064.59 4710.78,6040.14 "/>
   <polygon class="fil8" points="6455.28,7533.05 3714.07,7041.37 3714.07,7458.13 6455.28,7926.71 "/>
   <polygon class="fil8" points="2396.53,6683.29 1972.96,8051.68 1608.22,8051.68 2078.8,6711.19 "/>
   <path class="fil7" d="M3332.38 8298.45l43.7 0 0 83.91c-24.25,17.29 -53.3,26.53 -83.07,26.43 -64.99,0 -113.01,-44.7 -113.01,-107.19 0,-62.47 48.02,-107.01 114,-107.01 16.18,-0.79 32.31,2 47.29,8.17 14.95,6.19 28.37,15.58 39.27,27.56l-30.72 28.43c-6.72,-7.51 -14.98,-13.52 -24.2,-17.55 -9.25,-4.04 -19.24,-6.05 -29.32,-5.88 -17.62,0 -34.52,6.99 -47,19.45 -12.46,12.49 -19.45,29.38 -19.45,47 0,17.62 6.99,34.55 19.45,47.01 12.49,12.46 29.38,19.47 47,19.47 13.01,0.28 25.88,-2.74 37.38,-8.81l-1.32 -60.99z"/>
   <path class="fil7" d="M3600.7 8273.2c0,46.19 -34.57,74.92 -89.89,74.92l-43.05 0 0 57 -47.85 0 0 -207.05 89.55 0c56.01,0 91.23,29.41 91.23,75.12zm-48.35 0c0,-22.78 -14.95,-36.06 -44.2,-36.06l-40.38 0 0 71.95 39.06 0c29.89,0 44.84,-13.3 44.84,-35.89l0.67 0z"/>
   <path class="fil7" d="M3620.84 8384.85l16.61 -36.22c20.12,13.93 43.98,21.46 68.47,21.6 28.4,0 39.88,-9.48 39.88,-22.11 0,-38.72 -120.47,-12.12 -120.47,-89.07 0,-35.22 28.4,-64.46 87.39,-64.46 25.15,-0.55 49.96,5.76 71.78,18.27l-14.79 36.4c-17.34,-10.44 -37.09,-16.16 -57.31,-16.61 -28.42,0 -39.4,10.63 -39.4,23.76 0,38.06 120.47,11.79 120.47,87.73 0,34.74 -28.74,64.32 -87.89,64.32 -29.99,0.87 -59.54,-7.37 -84.75,-23.6z"/>
   <polygon class="fil9" points="3514.15,6128.46 4097.07,7018.8 3517.64,6931.24 2951.67,7018.8 "/>
   <g>
    <polygon class="fil12" points="2951.64,7018.8 3514.8,6859.44 4097.07,7018.8 3514.8,6931.72 "/>
   </g>
   <path class="fil10" d="M3514.2 6128.46c2.48,0 4.49,163.68 4.64,365.57 0.16,201.9 -1.66,365.57 -3.98,365.57 -2.33,0 -4.49,-163.49 -4.64,-365.57 -0.17,-202.05 1.66,-365.57 3.98,-365.57z"/>
   <path class="fil9" d="M3947.81 5059.5l-742.45 0c-66.17,0 -129.67,-26.24 -176.53,-72.96 -46.88,-46.71 -73.32,-110.12 -73.53,-176.32 0,-32.79 6.46,-65.28 19.04,-95.58 12.59,-30.27 31.02,-57.81 54.26,-80.95 23.24,-23.17 50.8,-41.51 81.15,-53.97 30.32,-12.49 62.83,-18.85 95.62,-18.76l742.45 0c32.81,-0.09 65.3,6.27 95.65,18.76 30.34,12.46 57.9,30.8 81.14,53.97 23.25,23.14 41.69,50.68 54.23,80.95 12.59,30.3 19.06,62.78 19.06,95.58 -0.22,66.19 -26.67,129.6 -73.53,176.32 -46.88,46.72 -110.37,72.96 -176.55,72.96z"/>
   <path class="fil7" d="M3292.82 4844.6l0 26.27 -107.51 0 0 -21.27 54.66 -51.52c12.47,-11.96 14.79,-19.28 14.79,-26.24 0,-11.14 -7.63,-16.64 -22.76,-16.64 -5.66,-0.22 -11.28,0.93 -16.4,3.41 -5.09,2.45 -9.51,6.14 -12.85,10.73l-23.93 -15.46c6.55,-8.65 15.1,-15.53 24.92,-20.13 9.82,-4.56 20.6,-6.67 31.42,-6.14 31.58,0 52.51,16.64 52.51,41.89 -0.19,8.77 -2.42,17.36 -6.53,25.13 -4.1,7.76 -9.94,14.45 -17.07,19.57l-33.23 30.72 61.97 -0.34z"/>
   <path class="fil7" d="M3346.69 4853.08c-0.29,7.09 -2.16,14 -5.5,20.26l-11.45 29.07 -20.12 0 8.65 -31.57c-3.27,-1.37 -6.08,-3.67 -8.02,-6.62 -1.97,-2.96 -2.98,-6.43 -2.96,-9.99 0.46,-4.87 2.71,-9.38 6.32,-12.68 3.63,-3.31 8.33,-5.14 13.23,-5.14 4.87,0 9.58,1.82 13.2,5.14 3.6,3.29 5.86,7.8 6.32,12.68l0.34 -1.15z"/>
   <path class="fil7" d="M3467.81 4826.84c0,25.09 -18.44,46.87 -58.82,46.87 -19.08,0.36 -37.88,-4.9 -53.99,-15.13l12.94 -25.09c11.69,8.46 25.78,12.94 40.22,12.79 16.63,0 26.6,-6.98 26.6,-18.46 0,-11.45 -7.32,-18.44 -33.23,-18.44l-36.22 0 7.3 -79.59 86.4 0 0 26.24 -57.64 0 -2.16 26.93 11.45 0c40.55,0 57.16,18.77 57.16,43.86z"/>
   <polygon class="fil7" points="3516.62,4841.96 3507.14,4850.76 3507.14,4863.21 3498.84,4863.21 3498.84,4799.43 3507.14,4799.43 3507.14,4840.29 3532.06,4817.69 3542.04,4817.69 3522.77,4836.47 3543.87,4863.21 3534.22,4863.21 "/>
   <path class="fil7" d="M3626.94 4837.64l0 26.27 -8.3 0 0 -26.27c0,-8.96 -4.16,-13.45 -11.65,-13.45 -1.94,-0.09 -3.88,0.24 -5.71,0.99 -1.81,0.74 -3.41,1.9 -4.74,3.34 -1.32,1.43 -2.3,3.14 -2.88,5.02 -0.58,1.87 -0.74,3.84 -0.45,5.78l0 23.6 -8.14 0 0 -25.28c0,-8.96 -4.33,-13.45 -11.81,-13.45 -1.94,-0.09 -3.89,0.24 -5.72,0.99 -1.8,0.74 -3.4,1.9 -4.73,3.34 -1.32,1.43 -2.3,3.14 -2.89,5.02 -0.57,1.87 -0.74,3.84 -0.45,5.78l0 23.6 -8.64 0 0 -45.21 7.8 0 0 6.65c1.84,-2.38 4.25,-4.27 7.01,-5.53 2.76,-1.24 5.76,-1.8 8.79,-1.63 3.14,-0.24 6.31,0.44 9.12,1.92 2.81,1.52 5.12,3.79 6.65,6.55 2.01,-2.73 4.68,-4.96 7.75,-6.43 3.08,-1.49 6.46,-2.18 9.87,-2.04 2.74,-0.5 5.57,-0.31 8.21,0.58 2.64,0.86 5.02,2.38 6.93,4.42 1.9,2.04 3.25,4.51 3.94,7.22 0.7,2.69 0.7,5.53 0.03,8.21z"/>
   <polygon class="fil7" points="3853.82,4666.64 3714.07,4765.5 3853.82,4849.6 "/>
   <path class="fil7" d="M4021.77 4904.15l-66.45 0 0 -74.95c0,-5.02 -0.99,-9.99 -2.9,-14.63 -1.92,-4.63 -4.75,-8.86 -8.28,-12.41 -3.56,-3.52 -7.78,-6.36 -12.41,-8.28 -4.64,-1.92 -9.6,-2.91 -14.62,-2.91l-101.7 0 0 -66.45 101.02 0c27.76,0.02 54.36,11.07 74,30.71 19.62,19.61 30.66,46.21 30.71,73.97l0.64 74.95z"/>
   <path class="fil11" d="M957.1 6066.9c0,-71.4 -57.88,-129.29 -129.28,-129.29 -71.38,0 -129.27,57.88 -129.27,129.29l0 738.3c0,71.39 57.89,129.28 129.27,129.28 71.39,0 129.28,-57.88 129.28,-129.28l0 -738.3z"/>
   <g>
    <path class="fil13" d="M940.68 6075.12c0,22.32 -6.63,44.13 -19.02,62.68 -12.41,18.56 -30.03,33.01 -50.63,41.56 -20.62,8.55 -43.31,10.78 -65.21,6.41 -21.87,-4.34 -41.98,-15.1 -57.76,-30.87 -15.77,-15.77 -26.52,-35.87 -30.87,-57.76 -4.37,-21.9 -2.14,-44.58 6.41,-65.18 8.55,-20.62 23,-38.25 41.56,-50.66 18.56,-12.39 40.38,-19.02 62.68,-19.02 14.82,0 29.48,2.93 43.19,8.6 13.68,5.66 26.12,13.96 36.59,24.46 10.5,10.46 18.8,22.9 24.47,36.61 5.66,13.68 8.59,28.35 8.59,43.16z"/>
   </g>
   <polygon class="fil7" points="772.86,6132.23 827.87,6017.92 882.87,6131.75 827.05,6098.66 "/>
   <polygon class="fil7" points="838.6,6354.38 813,6354.38 813,6448.24 838.6,6448.24 "/>
   <polygon class="fil7" points="781,6388.61 781,6414.21 874.87,6414.21 874.87,6388.61 "/>
   <polygon class="fil7" points="781,6765.49 781,6791.08 874.87,6791.08 874.87,6765.49 "/>
   <path class="fil0" d="M4028.31 7807.42l-1026.94 0c-38.1,0 -75.87,-7.51 -111.09,-22.09 -35.22,-14.6 -67.22,-35.99 -94.18,-62.93 -26.94,-26.96 -48.33,-58.96 -62.93,-94.19 -14.57,-35.22 -22.09,-72.98 -22.09,-111.1 0,-77 30.59,-150.83 85.01,-205.27 54.44,-54.43 128.3,-85.01 205.27,-85.01l1026.94 0c76.99,0 150.82,30.59 205.27,85.01 54.43,54.44 85.01,128.27 85.01,205.27 0,38.12 -7.5,75.89 -22.09,111.1 -14.6,35.22 -35.97,67.23 -62.93,94.19 -26.96,26.94 -58.96,48.33 -94.19,62.93 -35.22,14.57 -72.95,22.09 -111.08,22.09z"/>
   <path class="fil10" d="M4028.33 7815.72l-1026.95 0c-40.64,2.36 -81.37,-3.62 -119.63,-17.57 -38.29,-13.96 -73.3,-35.56 -102.93,-63.53 -29.63,-27.95 -53.23,-61.68 -69.36,-99.06 -16.13,-37.4 -24.44,-77.72 -24.44,-118.45 0,-40.72 8.3,-81.03 24.44,-118.43 16.13,-37.41 39.73,-71.11 69.36,-99.09 29.63,-27.97 64.63,-49.57 102.93,-63.53 38.26,-13.92 78.99,-19.9 119.63,-17.57l1026.95 0c76.2,4.41 147.84,37.78 200.25,93.32 52.38,55.51 81.57,128.95 81.57,205.3 0,76.34 -29.19,149.78 -81.57,205.32 -52.41,55.51 -124.05,88.88 -200.25,93.29zm-1026.95 -580.58c-38.44,-2.3 -76.95,3.29 -113.12,16.45 -36.2,13.13 -69.33,33.54 -97.37,59.94 -28.02,26.41 -50.35,58.27 -65.62,93.61 -15.26,35.37 -23.14,73.47 -23.14,111.98 0,38.5 7.88,76.6 23.14,111.97 15.27,35.36 37.6,67.22 65.62,93.62 28.04,26.41 61.17,46.79 97.37,59.95 36.18,13.13 74.69,18.73 113.12,16.44l1026.95 0c71.87,-4.26 139.41,-35.84 188.8,-88.27 49.41,-52.41 76.89,-121.7 76.89,-193.72 0,-72 -27.48,-141.32 -76.89,-193.73 -49.39,-52.41 -116.93,-83.98 -188.8,-88.25l-1026.95 0z"/>
   <path class="fil7" d="M3032.79 7695.08c98.29,0 177.97,-79.68 177.97,-177.97 0,-98.3 -79.68,-177.98 -177.97,-177.98 -98.29,0 -177.98,79.68 -177.98,177.98 0,98.29 79.69,177.97 177.98,177.97z"/>
   <path class="fil11" d="M3032.79 7703.37c-36.88,0.09 -72.94,-10.73 -103.64,-31.16 -30.69,-20.41 -54.64,-49.46 -68.81,-83.48 -14.19,-34.05 -17.94,-71.49 -10.81,-107.68 7.13,-36.15 24.83,-69.41 50.85,-95.5 26.05,-26.1 59.23,-43.88 95.38,-51.11 36.13,-7.22 73.61,-3.58 107.68,10.52 34.06,14.07 63.18,37.96 83.69,68.59 20.48,30.66 31.42,66.7 31.42,103.55 -0.05,49.31 -19.61,96.58 -54.43,131.49 -34.83,34.91 -82.06,54.62 -131.34,54.79zm0 -355.94c-33.59,-0.1 -66.43,9.77 -94.4,28.35 -27.97,18.58 -49.8,45.04 -62.71,76.04 -12.92,31 -16.35,65.13 -9.87,98.07 6.51,32.94 22.62,63.22 46.34,87.01 23.69,23.76 53.92,39.97 86.86,46.55 32.92,6.6 67.06,3.27 98.07,-9.55 31.05,-12.82 57.57,-34.57 76.23,-62.49 18.67,-27.9 28.64,-60.72 28.64,-94.31 0.13,-45.02 -17.62,-88.23 -49.33,-120.17 -31.71,-31.95 -74.81,-49.98 -119.82,-50.15l0 0.65z"/>
   <polygon class="fil10" points="2958.96,7465.06 2958.96,7561.11 2936.85,7561.11 2936.85,7483 2917.6,7483 2917.6,7465.06 "/>
   <path class="fil10" d="M2975.74 7512.96c0,-31.74 17.62,-49.87 41.22,-49.87 23.6,0 41.03,17.96 41.03,49.87 0,31.9 -16.61,49.84 -41.03,49.84 -24.44,0 -41.22,-17.94 -41.22,-49.84zm60 0c0,-21.78 -7.66,-30.92 -18.77,-30.92 -11.13,0 -18.63,9.15 -18.63,30.92 0,21.78 7.66,30.9 18.63,30.9 10.95,0 18.77,-8.98 18.77,-30.9z"/>
   <path class="fil10" d="M3068.97 7512.96c0,-31.74 17.46,-49.87 41.06,-49.87 23.57,0 41.2,17.96 41.2,49.87 0,31.9 -16.61,49.84 -41.2,49.84 -24.61,0 -41.06,-17.94 -41.06,-49.84zm60 0c0,-21.78 -7.82,-30.92 -18.94,-30.92 -11.14,0 -18.64,9.15 -18.64,30.92 0,21.78 7.66,30.9 18.64,30.9 10.94,0 18.94,-8.98 18.94,-30.9z"/>
   <path class="fil10" d="M3502.15 7499.01c0,75.45 -42.54,116.32 -104.36,116.32 -19.16,0.76 -38.17,-3.7 -55.01,-12.97l11.98 -24.58c12.92,7.53 27.76,11.18 42.68,10.46 44.71,0 73.14,-28.09 73.14,-83.09l0 -8.81c-7.35,9.77 -17.02,17.55 -28.14,22.64 -11.12,5.06 -23.31,7.3 -35.51,6.46 -43.86,0 -75.44,-26.27 -75.44,-66.48 0,-40.21 34.07,-69.79 77.94,-69.79 59.33,-0.34 92.72,39.4 92.72,109.84zm-38.73 -42.04c0,-22.59 -18.27,-42.55 -52.84,-42.55 -6.05,-0.69 -12.2,-0.12 -18.03,1.73 -5.83,1.82 -11.22,4.85 -15.78,8.9 -4.58,4.04 -8.26,9.01 -10.78,14.55 -2.54,5.57 -3.88,11.6 -3.93,17.69 0,25.92 19.27,42.71 49.86,42.71 30.56,0 51.49,-18.61 51.49,-43.05z"/>
   <path class="fil10" d="M3703.77 7545.05c0,42.71 -34.41,69.8 -78.27,69.8 -59.33,0 -92.88,-39.72 -92.88,-110.18 0,-75.43 42.7,-116.32 104.52,-116.32 19.16,-0.67 38.16,3.82 55.01,12.97l-12.15 24.58c-12.77,-7.47 -27.41,-11.09 -42.2,-10.47 -44.84,0 -73.61,28.09 -73.61,83.1 -0.15,2.59 -0.15,5.21 0,7.8 7.37,-9.68 17.02,-17.41 28.08,-22.45 11.1,-5.05 23.25,-7.28 35.39,-6.46 44.2,0.84 76.11,26.91 76.11,67.63zm-30.56 1.32c0,-25.91 -19.62,-42.55 -49.87,-42.55 -30.25,0 -50.85,18.64 -50.85,42.88 0,24.27 18.29,42.54 52.34,42.54 28.09,0 48.38,-16.61 48.38,-43.05l0 0.17z"/>
   <polygon class="fil10" points="3798.65,7562.77 3786.52,7574.05 3786.52,7590.67 3776.03,7590.67 3776.03,7508.92 3786.52,7508.92 3786.52,7561.43 3818.41,7532.36 3831.03,7532.36 3806.61,7556.46 3833.53,7590.67 3820.57,7590.67 "/>
   <path class="fil10" d="M3939.84 7557.13l0 33.23 -10.63 0 0 -32.38c0,-11.48 -5.47,-16.61 -14.94,-16.61 -2.54,-0.19 -5.06,0.19 -7.41,1.13 -2.36,0.93 -4.46,2.4 -6.15,4.27 -1.7,1.87 -2.95,4.13 -3.65,6.55 -0.72,2.43 -0.83,5 -0.41,7.47l0 30.09 -10.46 0 0 -32.39c0,-11.47 -5.5,-16.63 -15.13,-16.63 -9.63,0 -16.61,6.81 -16.61,19.45l0 30.08 -10.63 0 0 -58.32 10.13 0 0 8.65c2.33,-3.09 5.38,-5.57 8.88,-7.2 3.51,-1.61 7.38,-2.35 11.24,-2.11 4.03,-0.26 8.08,0.6 11.66,2.5 3.58,1.92 6.56,4.81 8.6,8.31 2.59,-3.48 5.97,-6.29 9.89,-8.17 3.88,-1.9 8.21,-2.79 12.53,-2.64 3.21,-0.12 6.41,0.46 9.38,1.68 2.96,1.25 5.63,3.1 7.8,5.43 2.21,2.36 3.87,5.14 4.87,8.19 1.03,3.05 1.37,6.26 1.03,9.46z"/>
   <polygon class="fil10" points="3982.93,7497.95 3992.58,7497.95 3956.19,7601.64 3946.7,7601.64 "/>
   <path class="fil10" d="M4053.56 7557.16l0 33.23 -10.63 0 0 -32.41c0,-11.45 -5.66,-16.61 -15.63,-16.61 -2.6,-0.36 -5.26,-0.1 -7.73,0.76 -2.48,0.87 -4.73,2.3 -6.53,4.2 -1.82,1.91 -3.17,4.21 -3.91,6.72 -0.77,2.52 -0.92,5.16 -0.44,7.76l0 30.08 -10.46 0 0 -81.77 10.46 0 0 31.58c2.58,-2.9 5.74,-5.19 9.32,-6.72 3.56,-1.52 7.42,-2.23 11.29,-2.07 3.33,-0.28 6.7,0.2 9.84,1.4 3.12,1.17 5.95,3.05 8.28,5.47 2.33,2.4 4.08,5.31 5.14,8.5 1.06,3.17 1.4,6.55 1.01,9.89z"/>
   <path class="fil7" d="M4323.84 3919.24c0,2.33 -670.33,4.33 -1497.02,4.33 -826.69,0 -1497.19,-2 -1497.19,-4.33 0,-2.32 670.16,-4.32 1497.19,-4.32 827.03,0 1497.02,2 1497.02,4.32z"/>
   <path class="fil7" d="M796.97 3945.82c0,2.33 -84.41,5.16 -188.58,6.32 -104.2,1.18 -188.61,0 -188.61,-2.33 0,-2.3 84.41,-5.14 188.44,-6.31 104.03,-1.15 188.61,-0.15 188.76,2.32z"/>
   <g>
    <path class="fil14" d="M4348.48 7862.89c89.71,0 176.62,-4.96 265.87,-10.97 9.75,0.46 19.35,-2.4 27.25,-8.14 3.67,-4.63 6.41,-9.96 7.99,-15.67 1.61,-5.69 2.04,-11.67 1.32,-17.55 0,-48.02 -1.99,-102.69 -38.38,-133.95 -23.72,-17.09 -52.03,-26.64 -81.27,-27.41 -72.75,-7.61 -146.26,-0.22 -216.03,21.78l33.26 191.91z"/>
   </g>
   <polygon class="fil8" points="6051.71,5829.92 5968.15,5829.92 5968.15,6006.62 6051.71,6006.62 "/>
   <path class="fil8" d="M6267.54 6075.95c0,1.76 -110.67,3.29 -247.28,3.29 -136.84,0 -247.53,-1.53 -247.53,-3.29 0,-1.75 110.68,-3.38 247.53,-3.38 136.61,0 247.28,1.52 247.28,3.38z"/>
   <polygon class="fil8" points="6051.71,6191.24 5968.15,6191.24 5968.15,6367.82 6051.71,6367.82 "/>
   <path class="fil8" d="M6267.54 6437.18c0,1.87 -110.67,3.38 -247.28,3.38 -136.84,0 -247.53,-1.52 -247.53,-3.38 0,-1.88 110.68,-3.38 247.53,-3.38 136.61,0 247.28,1.51 247.28,3.38z"/>
   <polygon class="fil8" points="6051.71,6552.57 5968.15,6552.57 5968.15,6729.15 6051.71,6729.15 "/>
   <path class="fil8" d="M6267.54 6798.41c0,1.87 -110.67,3.38 -247.28,3.38 -136.84,0 -247.53,-1.52 -247.53,-3.38 0,-1.88 110.68,-3.41 247.53,-3.41 136.61,0 247.28,1.53 247.28,3.41z"/>
   <polygon class="fil8" points="6051.71,6903.51 5968.15,6903.51 5968.15,7080.09 6051.71,7080.09 "/>
   <path class="fil8" d="M6267.54 7149.45c0,1.88 -110.67,3.38 -247.28,3.38 -136.84,0 -247.53,-1.51 -247.53,-3.38 0,-1.87 110.68,-3.41 247.53,-3.41 136.61,0 247.28,1.54 247.28,3.41z"/>
   <polygon class="fil8" points="6051.71,7255.9 5968.15,7255.9 5968.15,7432.51 6051.71,7432.51 "/>
   <polygon class="fil8" points="6051.71,7612.74 5968.15,7612.74 5968.15,7789.31 6051.71,7789.31 "/>
   <path class="fil8" d="M6267.54 7501.74c0,1.88 -110.67,3.38 -247.28,3.38 -136.84,0 -247.53,-1.51 -247.53,-3.38 0,-1.87 110.68,-3.28 247.53,-3.28 136.61,0 247.28,1.51 247.28,3.28z"/>
   <path class="fil8" d="M5768.41 6081.24c0,1.87 -110.79,3.4 -247.45,3.4 -136.65,0 -247.43,-1.53 -247.43,-3.4 0,-1.88 110.77,-3.39 247.43,-3.39 136.66,0 247.45,1.52 247.45,3.39z"/>
   <polygon class="fil15" points="5552.6,6191.24 5468.89,6191.24 5468.89,6367.82 5552.6,6367.82 "/>
   <path class="fil8" d="M5768.41 6437.27c0,1.88 -110.79,3.41 -247.45,3.41 -136.65,0 -247.43,-1.53 -247.43,-3.41 0,-1.87 110.77,-3.38 247.43,-3.38 136.66,0 247.45,1.52 247.45,3.38z"/>
   <polygon class="fil15" points="5552.6,6547.38 5468.89,6547.38 5468.89,6723.96 5552.6,6723.96 "/>
   <path class="fil8" d="M5768.41 6793.42c0,1.75 -110.79,3.26 -247.45,3.26 -136.65,0 -247.43,-1.51 -247.43,-3.26 0,-1.76 110.77,-3.41 247.43,-3.41 136.66,0 247.45,1.53 247.45,3.41z"/>
   <polygon class="fil15" points="5552.6,6903.51 5468.89,6903.51 5468.89,7080.09 5552.6,7080.09 "/>
   <path class="fil8" d="M5768.41 7149.45c0,1.88 -110.79,3.38 -247.45,3.38 -136.65,0 -247.43,-1.51 -247.43,-3.38 0,-1.87 110.77,-3.41 247.43,-3.41 136.66,0 247.45,1.54 247.45,3.41z"/>
   <polygon class="fil15" points="5552.6,7259.43 5468.89,7259.43 5468.89,7436.01 5552.6,7436.01 "/>
   <path class="fil8" d="M5768.41 7505.27c0,1.87 -110.79,3.41 -247.45,3.41 -136.65,0 -247.43,-1.54 -247.43,-3.41 0,-1.87 110.77,-3.38 247.43,-3.38 136.66,0 247.45,1.75 247.45,3.38z"/>
   <polygon class="fil15" points="5552.6,7615.57 5468.89,7615.57 5468.89,7792.15 5552.6,7792.15 "/>
   <path class="fil8" d="M9455.08 5177.7c0,2.69 -159.41,4.89 -356.51,4.89 -196.87,0 -356.76,-2.2 -356.76,-4.89 0,-2.71 159.65,-4.81 356.76,-4.81 197.1,0 356.51,2.1 356.51,4.81z"/>
   <path class="fil8" d="M10174.61 5177.7c0,2.69 -159.66,4.89 -356.52,4.89 -197.1,0 -356.76,-2.2 -356.76,-4.89 0,-2.71 159.66,-4.81 356.76,-4.81 196.87,0 356.52,2.1 356.52,4.81z"/>
   <polygon class="fil8" points="9863.7,5328.78 9742.94,5328.78 9742.94,5583.34 9863.7,5583.34 "/>
   <path class="fil8" d="M10174.61 5683.35c0,2.69 -159.66,4.8 -356.52,4.8 -197.1,0 -356.76,-2.11 -356.76,-4.8 0,-2.69 159.66,-4.92 356.76,-4.92 196.87,0 356.52,2.23 356.52,4.92z"/>
   <polygon class="fil8" points="9863.7,5849.51 9742.94,5849.51 9742.94,6104.07 9863.7,6104.07 "/>
   <path class="fil8" d="M10174.61 6204.08c0,2.69 -159.66,4.93 -356.52,4.93 -197.1,0 -356.76,-2.23 -356.76,-4.93 0,-2.69 159.66,-4.92 356.76,-4.92 196.87,0 356.52,2.23 356.52,4.92z"/>
   <polygon class="fil8" points="9863.7,6370.35 9742.94,6370.35 9742.94,6624.9 9863.7,6624.9 "/>
   <path class="fil8" d="M10174.61 6724.8c0,2.69 -159.66,4.92 -356.52,4.92 -197.1,0 -356.76,-2.23 -356.76,-4.92 0,-2.69 159.66,-4.8 356.76,-4.8 196.87,0 356.52,2.11 356.52,4.8z"/>
   <polygon class="fil8" points="9863.7,6876.19 9742.94,6876.19 9742.94,7130.75 9863.7,7130.75 "/>
   <path class="fil8" d="M10174.61 7230.77c0,2.57 -159.66,4.8 -356.52,4.8 -197.1,0 -356.76,-2.23 -356.76,-4.8 0,-2.57 159.66,-4.93 356.76,-4.93 196.87,0 356.52,2.23 356.52,4.93z"/>
   <polygon class="fil8" points="9863.7,7384.08 9742.94,7384.08 9742.94,7638.66 9863.7,7638.66 "/>
   <polygon class="fil8" points="9863.7,7898.75 9742.94,7898.75 9742.94,8153.32 9863.7,8153.32 "/>
   <path class="fil8" d="M10174.61 7738.65c0,2.69 -159.66,4.93 -356.52,4.93 -197.1,0 -356.76,-2.23 -356.76,-4.93 0,-2.69 159.66,-4.8 356.76,-4.8 196.87,0 356.52,2.11 356.52,4.8z"/>
   <polygon class="fil15" points="9144.18,5336.51 9023.42,5336.51 9023.42,5591.09 9144.18,5591.09 "/>
   <path class="fil8" d="M9455.08 5691.08c0,2.6 -159.41,4.8 -356.51,4.8 -196.87,0 -356.76,-2.2 -356.76,-4.8 0,-2.57 159.65,-4.9 356.76,-4.9 197.1,0 356.51,2.21 356.51,4.9z"/>
   <polygon class="fil15" points="9144.18,5849.7 9023.42,5849.7 9023.42,6104.26 9144.18,6104.26 "/>
   <path class="fil8" d="M9455.08 6204.27c0,2.6 -159.41,4.81 -356.51,4.81 -196.87,0 -356.76,-2.21 -356.76,-4.81 0,-2.57 159.65,-4.92 356.76,-4.92 197.1,0 356.51,2.23 356.51,4.92z"/>
   <polygon class="fil15" points="9144.18,6363 9023.42,6363 9023.42,6617.55 9144.18,6617.55 "/>
   <path class="fil8" d="M9455.08 6717.57c0,2.6 -159.41,4.8 -356.51,4.8 -196.87,0 -356.76,-2.2 -356.76,-4.8 0,-2.57 159.65,-4.92 356.76,-4.92 197.1,0 356.51,2.23 356.51,4.92z"/>
   <polygon class="fil15" points="9144.18,6876.19 9023.42,6876.19 9023.42,7130.75 9144.18,7130.75 "/>
   <path class="fil8" d="M9455.08 7230.77c0,2.57 -159.41,4.8 -356.51,4.8 -196.87,0 -356.76,-2.23 -356.76,-4.8 0,-2.57 159.65,-4.93 356.76,-4.93 197.1,0 356.51,2.23 356.51,4.93z"/>
   <polygon class="fil15" points="9144.18,7389.48 9023.42,7389.48 9023.42,7644.04 9144.18,7644.04 "/>
   <path class="fil8" d="M9455.08 7744.06c0,2.69 -159.41,4.8 -356.51,4.8 -196.87,0 -356.76,-2.11 -356.76,-4.8 0,-2.69 159.65,-4.93 356.76,-4.93 197.1,0 356.51,2.23 356.51,4.93z"/>
   <polygon class="fil15" points="9144.18,7902.66 9023.42,7902.66 9023.42,8157.23 9144.18,8157.23 "/>
   <polygon class="fil16" points="10256.72,6438 9981.58,6438 9981.58,6680.5 10256.72,6680.5 "/>
   <polygon class="fil0" points="10256.72,6438 10191.17,6438 10191.17,6680.5 10256.72,6680.5 "/>
   <g>
    <path class="fil8" d="M9827.45 6680.5l0 -14.16 867.41 0 0 14.16 -867.41 0zm0 0l0 0 0 0z"/>
   </g>
   <polygon class="fil15" points="10112.42,6786.28 10046.4,6786.28 10046.4,6925.41 10112.42,6925.41 "/>
   <path class="fil8" d="M10282.16 6980.12c0,1.42 -87.15,2.57 -194.94,2.57 -107.55,0 -194.71,-1.15 -194.71,-2.57 0,-1.42 87.15,-2.69 194.71,-2.69 107.8,0 194.94,0.93 194.94,2.69z"/>
   <polygon class="fil8" points="10505.43,6786.28 10439.66,6786.28 10439.66,6925.41 10505.43,6925.41 "/>
   <path class="fil8" d="M10675.42 6980.12c0,1.42 -87.15,2.57 -194.94,2.57 -107.56,0 -194.71,-1.15 -194.71,-2.57 0,-1.42 87.15,-2.69 194.71,-2.69 107.8,0 194.94,0.93 194.94,2.69z"/>
   <polygon class="fil8" points="10505.43,7062.52 10439.66,7062.52 10439.66,7201.64 10505.43,7201.64 "/>
   <path class="fil8" d="M10675.42 7256.17c0,1.52 -87.15,2.69 -194.94,2.69 -107.56,0 -194.71,-1.17 -194.71,-2.69 0,-1.53 87.15,-2.71 194.71,-2.71 107.8,0 194.94,1.3 194.94,2.71z"/>
   <polygon class="fil8" points="10505.43,7347.09 10439.66,7347.09 10439.66,7486.19 10505.43,7486.19 "/>
   <path class="fil8" d="M10675.42 7540.43c0,1.39 -87.15,2.69 -194.94,2.69 -107.56,0 -194.71,-1.3 -194.71,-2.69 0,-1.42 87.15,-2.71 194.71,-2.71 107.8,0 194.94,1.53 194.94,2.71z"/>
   <polygon class="fil8" points="10505.43,7631.54 10439.66,7631.54 10439.66,7770.64 10505.43,7770.64 "/>
   <path class="fil8" d="M10675.42 7825.26c0,1.42 -87.15,2.6 -194.94,2.6 -107.56,0 -194.71,-1.18 -194.71,-2.6 0,-1.4 87.15,-2.69 194.71,-2.69 107.8,0 194.94,1.18 194.94,2.69z"/>
   <polygon class="fil8" points="10505.43,7907.96 10439.66,7907.96 10439.66,8047.07 10505.43,8047.07 "/>
   <path class="fil8" d="M10675.42 8101.68c0,1.53 -87.15,2.69 -194.94,2.69 -107.56,0 -194.71,-1.15 -194.71,-2.69 0,-1.52 87.15,-2.69 194.71,-2.69 107.8,0 194.94,1.17 194.94,2.69z"/>
   <polygon class="fil8" points="10505.43,8185.44 10439.66,8185.44 10439.66,8324.57 10505.43,8324.57 "/>
   <polygon class="fil8" points="10505.43,8466.58 10439.66,8466.58 10439.66,8605.68 10505.43,8605.68 "/>
   <path class="fil8" d="M10675.42 8379.19c0,1.4 -87.15,2.57 -194.94,2.57 -107.56,0 -194.71,-1.17 -194.71,-2.57 0,-1.42 87.15,-2.69 194.71,-2.69 107.8,0 194.94,1.15 194.94,2.69z"/>
   <polygon class="fil15" points="10112.42,7066.74 10046.4,7066.74 10046.4,7205.84 10112.42,7205.84 "/>
   <path class="fil8" d="M10282.16 7260.37c0,1.52 -87.15,2.69 -194.94,2.69 -107.55,0 -194.71,-1.17 -194.71,-2.69 0,-1.52 87.15,-2.69 194.71,-2.69 107.8,0 194.94,1.63 194.94,2.69z"/>
   <polygon class="fil15" points="10112.42,7347.18 10046.4,7347.18 10046.4,7486.28 10112.42,7486.28 "/>
   <path class="fil8" d="M10282.16 7540.43c0,1.39 -87.15,2.57 -194.94,2.57 -107.55,0 -194.71,-1.18 -194.71,-2.57 0,-1.42 87.15,-2.71 194.71,-2.71 107.8,0 194.94,1.65 194.94,2.71z"/>
   <polygon class="fil15" points="10112.42,7627.53 10046.4,7627.53 10046.4,7766.63 10112.42,7766.63 "/>
   <path class="fil8" d="M10282.16 7821.41c0,1.54 -87.15,2.71 -194.94,2.71 -107.55,0 -194.71,-1.17 -194.71,-2.71 0,-1.51 87.15,-2.57 194.71,-2.57 107.8,0 194.94,0.94 194.94,2.57z"/>
   <polygon class="fil15" points="10112.42,7907.96 10046.4,7907.96 10046.4,8047.07 10112.42,8047.07 "/>
   <path class="fil8" d="M10282.16 8101.68c0,1.53 -87.15,2.69 -194.94,2.69 -107.55,0 -194.71,-1.15 -194.71,-2.69 0,-1.52 87.15,-2.69 194.71,-2.69 107.8,0 194.94,1.17 194.94,2.69z"/>
   <polygon class="fil15" points="10112.42,8188.3 10046.4,8188.3 10046.4,8327.41 10112.42,8327.41 "/>
   <path class="fil8" d="M10282.16 8382.12c0,1.42 -87.15,2.57 -194.94,2.57 -107.55,0 -194.71,-1.15 -194.71,-2.57 0,-1.4 87.15,-2.69 194.71,-2.69 107.8,0 194.94,1.17 194.94,2.69z"/>
   <polygon class="fil15" points="10112.42,8468.84 10046.4,8468.84 10046.4,8607.94 10112.42,8607.94 "/>
   <polygon class="fil16" points="6175.58,7708 6099.96,7708 6099.96,7891.25 6175.58,7891.25 "/>
   <polygon class="fil16" points="6175.58,8425.46 6099.96,8425.46 6099.96,8608.71 6175.58,8608.71 "/>
   <path class="fil16" d="M6369.57 7963.25c0,1.63 -99.63,2.81 -222.32,2.81 -122.68,0 -222.56,-1.18 -222.56,-2.81 0,-1.63 99.88,-2.81 222.56,-2.81 122.69,0 222.32,1.52 222.32,2.81z"/>
   <polygon class="fil16" points="6175.58,8069.42 6099.96,8069.42 6099.96,8252.69 6175.58,8252.69 "/>
   <path class="fil16" d="M6369.57 8324.88c0,1.52 -99.63,2.81 -222.32,2.81 -122.68,0 -222.56,-1.3 -222.56,-2.81 0,-1.53 99.88,-2.93 222.56,-2.93 122.69,0 222.32,1.06 222.32,2.93z"/>
   <polygon class="fil8" points="6528.75,7708 6453.36,7708 6453.36,7891.25 6528.75,7891.25 "/>
   <polygon class="fil8" points="6692.48,7708 6617.09,7708 6617.09,7891.25 6692.48,7891.25 "/>
   <polygon class="fil8" points="6528.75,8055.81 6453.36,8055.81 6453.36,8239.08 6528.75,8239.08 "/>
   <polygon class="fil8" points="6692.48,8055.81 6617.09,8055.81 6617.09,8239.08 6692.48,8239.08 "/>
   <polygon class="fil8" points="6528.75,8403.61 6453.36,8403.61 6453.36,8586.88 6528.75,8586.88 "/>
   <polygon class="fil8" points="6692.48,8403.61 6617.09,8403.61 6617.09,8586.88 6692.48,8586.88 "/>
   <polygon class="fil8" points="6826.2,7519.7 5861.08,7519.7 5861.08,7559.63 6826.2,7559.63 "/>
   <path class="fil0" d="M6769.06 7563.75c0,1.52 -187.5,2.81 -418.93,2.81 -231.44,0 -418.94,-1.3 -418.94,-2.81 0,-1.51 187.5,-2.92 418.94,-2.92 231.43,0 418.93,0.82 418.93,2.92z"/>
   <polygon class="fil0" points="5207.84,6593.3 4730.69,6593.3 4730.69,7013.8 5207.84,7013.8 "/>
   <polygon class="fil8" points="5207.84,6593.3 5094.15,6593.3 5094.15,7013.8 5207.84,7013.8 "/>
   <polygon class="fil8" points="5967.44,6989.18 4463.84,6989.18 4463.84,7013.66 5967.44,7013.66 "/>
   <polygon class="fil7" points="4957.49,7197.15 4843.09,7197.15 4843.09,7438.39 4957.49,7438.39 "/>
   <path class="fil8" d="M5252.24 7533.05c0,2.57 -151.3,4.56 -337.85,4.56 -186.54,0 -337.93,-2 -337.93,-4.56 0,-2.59 151.3,-4.35 337.93,-4.35 186.67,0 337.85,1.76 337.85,4.35z"/>
   <polygon class="fil16" points="5639.2,7197.15 5524.8,7197.15 5524.8,7438.39 5639.2,7438.39 "/>
   <path class="fil0" d="M5933.83 7532.98c0,2.6 -151.4,4.56 -337.94,4.56 -186.51,0 -337.81,-1.97 -337.81,-4.56 0,-2.57 151.17,-4.56 337.81,-4.56 186.66,0 337.94,1.99 337.94,4.56z"/>
   <polygon class="fil16" points="5639.2,7675.97 5524.8,7675.97 5524.8,7917.2 5639.2,7917.2 "/>
   <path class="fil0" d="M5933.83 8011.92c0,2.48 -151.4,4.58 -337.94,4.58 -186.51,0 -337.81,-2.11 -337.81,-4.58 0,-2.45 151.17,-4.68 337.81,-4.68 186.66,0 337.94,2.11 337.94,4.68z"/>
   <polygon class="fil16" points="5639.2,8169.29 5524.8,8169.29 5524.8,8410.52 5639.2,8410.52 "/>
   <path class="fil0" d="M5933.83 8505.24c0,2.47 -151.4,4.58 -337.94,4.58 -186.51,0 -337.81,-2.11 -337.81,-4.58 0,-2.45 151.17,-4.68 337.81,-4.68 186.66,0 337.94,2.11 337.94,4.68z"/>
   <polygon class="fil7" points="4957.49,7683.32 4843.09,7683.32 4843.09,7924.55 4957.49,7924.55 "/>
   <path class="fil8" d="M5252.24 8019.26c0,2.57 -151.3,4.56 -337.85,4.56 -186.54,0 -337.93,-1.99 -337.93,-4.56 0,-2.6 151.3,-4.59 337.93,-4.59 186.67,0 337.85,2 337.85,4.59z"/>
   <polygon class="fil7" points="4957.49,8169.6 4843.09,8169.6 4843.09,8410.81 4957.49,8410.81 "/>
   <path class="fil8" d="M5252.24 8505.35c0,2.6 -151.3,4.56 -337.85,4.56 -186.54,0 -337.93,-1.97 -337.93,-4.56 0,-2.57 151.3,-4.8 337.93,-4.8 186.67,0 337.85,2.23 337.85,4.8z"/>
   <polygon class="fil17" points="10630.28,7605.2 5430.23,7605.2 5430.23,8124.88 10630.28,8124.88 "/>
   <g id="_1729515198640">
    <polygon class="fil18" points="10630.28,7605.17 5430.23,7605.17 5430.23,8124.88 10630.28,8124.88 "/>
   </g>
   <polygon class="fil9" points="9503.58,8190.44 7968.75,8190.44 7968.75,8671.73 9503.58,8671.73 "/>
   <polygon class="fil10" points="6896.07,7972.78 6896.07,8608.97 7420.16,8608.97 7630.23,8304.53 11457.11,8304.53 11457.11,7972.78 "/>
   <path class="fil17" d="M6863.42 5958.2c-0.48,-10.24 -5.05,-19.84 -12.73,-26.72 -7.68,-6.91 -17.52,-10.56 -27.85,-10.15 -207.18,8.55 -1190.49,53.61 -1392.73,150.82 -154.81,74.47 -324.37,352.46 -443.91,539.7 -85.73,134.2 -275.08,432.1 -313.38,584.45 -32.43,128.8 -51.98,396.74 -49.77,529.64l54.12 703.29 891.23 0 89.23 -232.33c28.47,-74.02 78.7,-137.63 144.08,-182.53 65.37,-44.87 142.91,-68.91 222.15,-68.88l885.66 0 0 -1167.12 -46.1 -820.16z"/>
   <path class="fil9" d="M5324.55 6150.02c-122.73,117.09 -245.91,316.16 -338.32,461.84 -79.37,124.24 -247.55,388.76 -302.45,548.25 -1.06,2.93 -1.88,5.73 -2.81,8.67 27.15,-7.49 68.98,-22.83 81.96,-48.59 19.56,-38.99 44.61,-172.59 354.45,-676.96 94.16,-153.75 185.97,-243.68 207.17,-293.21z"/>
   <path class="fil10" d="M6405.58 6097.9c-227.83,13.01 -721.97,46.84 -879.82,100.48 -205.63,70.27 -436.42,614.65 -447.33,638.54l-155.5 398.14c-0.89,2.6 -1.13,5.35 -0.72,8.09 0.41,2.71 1.46,5.28 3.08,7.51 1.58,2.23 3.69,4.04 6.14,5.31 2.45,1.24 5.14,1.9 7.89,1.91l401.99 0c15.23,0 30.32,-2.69 44.61,-7.97l1057.34 -394.16c23.29,-8.69 43.45,-24.35 57.62,-44.8 14.16,-20.48 21.85,-44.81 21.85,-69.72l0 -532.45c0,-15.1 -3.12,-30.06 -9.12,-43.94 -6.01,-13.87 -14.65,-26.39 -25.69,-36.76 -10.81,-10.37 -23.77,-18.41 -37.94,-23.6 -14.4,-5.21 -29.29,-7.44 -44.42,-6.6z"/>
   <path class="fil9" d="M4967.86 7218.78c0,0 148.94,-334.09 199.07,-443.57 75.65,-165.34 252.35,-503.55 371.67,-539.94 109.72,-32.91 425.23,-72.96 869.14,-98.38l4.32 0c18.96,0.06 37.21,7.68 50.9,21.17 13.45,13.49 20.89,31.79 20.89,50.85l0 544.51c0,13.42 -4.08,26.52 -11.77,37.55 -7.68,11.02 -18.48,19.45 -30.97,24.17l-781.19 96.36c-31.31,3.87 -61.42,14.5 -88.21,31.17 -26.8,16.66 -49.63,38.94 -66.96,65.32l-135.36 206.44c-7.94,2.96 -16.35,4.45 -24.82,4.45l-376.71 -0.1z"/>
   <path class="fil10" d="M5631.49 6917.44l-265.58 295.78 146.95 -982.11 36.76 -12.65 -72.36 727.54c-0.34,3.66 0.26,7.32 1.75,10.69 1.49,3.36 3.82,6.26 6.75,8.48 2.95,2.19 6.38,3.6 10.04,4.08 3.62,0.48 7.32,0 10.73,-1.35l124.97 -50.46z"/>
   <path class="fil0" d="M4605.61 7794.23c-0.93,-12.77 3.38,-23.43 9.94,-23.43l142.4 -13.11c11.71,-1.17 22.61,20.96 24,46.84l6.43 109.27c1.06,17.55 -4.2,32.43 -11.69,33.7l-145.23 25.07c-6.55,1.17 -12.87,-8.55 -13.8,-21.41l-12.05 -156.92z"/>
   <polygon class="fil10" points="5631.49,8304.62 4605.46,8304.62 4605.46,8716 5631.49,8716 "/>
   <path class="fil10" d="M6316.51 9145.7c309.71,-11.89 551.23,-272.69 539.23,-582.51 -11.77,-309.8 -272.73,-551.3 -582.44,-539.42 -309.7,11.9 -551.32,272.71 -539.42,582.51 11.91,309.83 272.69,551.32 582.63,539.42z"/>
   <path class="fil10" d="M5734.03 8574.98c0.07,0.5 0.07,1.01 0,1.52 -1.97,148.78 55.2,292.23 158.98,398.86 103.71,106.63 245.6,167.72 394.22,169.86 148.85,2.16 292.42,-54.83 399.01,-158.46 106.84,-103.6 168.06,-245.36 170.46,-394.09 0,0 0,-0.93 0,-1.42l-1122.67 -16.28z"/>
   <path class="fil15" d="M5900.93 8578.89c-1.2,77.95 20.89,154.49 63.15,219.96 42.49,65.45 103.23,116.87 174.77,147.75 71.55,30.9 150.77,39.85 227.36,25.76 76.83,-14.07 147.65,-50.59 203.59,-104.92 55.94,-54.3 94.35,-123.99 110.67,-200.22 16.32,-76.25 9.61,-155.62 -19.2,-228.05 -28.57,-72.46 -78.27,-134.76 -142.61,-179 -64.1,-44.24 -139.97,-68.44 -217.99,-69.58 -104.43,-1.49 -205.27,38.56 -280.18,111.37 -74.91,72.82 -117.88,172.43 -119.56,276.94z"/>
   <path class="fil8" d="M6300.91 8190.58c-104.44,-1.49 -205.27,38.56 -280.18,111.37 -75.15,72.82 -118.12,172.43 -119.56,276.94l788.18 11.71c1.44,-104.55 -38.65,-205.43 -111.39,-280.44 -72.75,-75.02 -172.62,-118.04 -277.05,-119.59z"/>
   <path class="fil10" d="M6055.06 8581.05c-0.48,47.47 12.73,94.09 38.65,133.94 25.69,39.85 62.9,71.17 106.36,89.96 43.7,18.83 91.95,24.27 138.53,15.68 46.81,-8.59 89.79,-30.85 123.88,-63.93 34.09,-33.08 57.62,-75.53 67.46,-121.96 9.85,-46.43 5.76,-94.76 -11.77,-138.89 -17.52,-44.13 -47.77,-82.04 -86.66,-109 -39.14,-26.94 -85.47,-41.68 -132.76,-42.35 -63.86,-0.92 -125.08,23.5 -170.94,67.87 -45.61,44.34 -71.78,105.03 -72.75,168.67z"/>
   <path class="fil10" d="M5206.29 6454.44l-45.79 0c-51.62,0 -93.44,41.85 -93.44,93.44l0 371.57c0,51.59 41.82,93.44 93.44,93.44l45.79 0c51.61,0 93.43,-41.85 93.43,-93.44l0 -371.57c0,-51.59 -41.82,-93.44 -93.43,-93.44z"/>
   <path class="fil10" d="M4970.86 7358.08l-11.71 0 0 -590.52c0.03,-28.17 11.24,-55.15 31.14,-75.08 19.93,-19.9 46.91,-31.09 75.07,-31.13l28.12 0 0 11.71 -28.12 0c-25.06,0.03 -49.07,9.99 -66.78,27.7 -17.72,17.72 -27.68,41.75 -27.71,66.79l0 590.52z"/>
   <path class="fil10" d="M5050.55 7358.8l-32.56 -552.11c-0.45,-9.44 0.99,-18.87 4.26,-27.76 3.28,-8.86 8.3,-16.98 14.78,-23.84 6.49,-6.9 14.29,-12.39 22.96,-16.19 8.67,-3.79 17.98,-5.78 27.44,-5.88l0 11.71c-7.88,0 -15.68,1.62 -22.9,4.74 -7.25,3.12 -13.76,7.68 -19.18,13.42 -5.4,5.73 -9.58,12.53 -12.27,19.93 -2.69,7.41 -3.85,15.29 -3.38,23.17l32.56 552.23 -11.7 0.58z"/>
   <polygon class="fil10" points="5087.42,7304.98 4929.57,7304.98 4929.57,7487.77 5087.42,7487.77 "/>
   <polygon class="fil10" points="5029.1,6957.94 4964.93,6957.94 4964.93,6969.66 5029.1,6969.66 "/>
   <path class="fil10" d="M5564.99 6113.7l13.95 -1.88 41.1 -4.8 159.25 -18.39 593.64 -67.58c31.7,-3.38 63.86,-7.6 97.24,-10.51 17.04,-1.32 34.09,-0.22 50.9,3.26 17.04,3.99 33.61,10.21 48.97,18.51 31.7,17.65 57.38,44.42 73.71,76.8 8.65,16.57 14.41,34.41 17.05,52.82 1.43,9.29 2.4,18.7 2.4,28.11l0 28.21c0,151.18 0,313.48 0,485.49 0,344.04 0,726.73 0,1135.87l0 3.05 -616.76 0c-35.05,-1.15 -70.34,0.53 -105.39,5.05 -72.03,10.37 -139.97,39.78 -196.87,85.2 -56.9,45.44 -100.65,105.22 -126.72,173.21 -5.05,12.49 -9.32,25.28 -12.75,38.29 -3.82,12.89 -6.81,25.98 -9.03,39.24l-3.05 19.9 -1.39 9.96 -0.6 9.95 -0.94 20.04 0 10.05 0 1.18c2.6,-2.6 -3.62,3.98 -3.14,3.27l-782.11 0 0 -3.27c0,-176.48 0,-346.62 0,-509.16 0,-81.27 0,-160.61 0,-238.06l0 -114.51c0,-18.85 0,-37.48 0,-56.09 0.38,-18.51 1.7,-36.99 3.98,-55.39 8.93,-70.85 31.42,-139.32 66.26,-201.64 32.25,-60.67 63.48,-119.2 93.68,-175.64l166.07 -311.14 134.77 -252.59c9.82,-18.35 19.28,-36.11 28.33,-53.27 4.68,-8.43 8.79,-16.98 13.71,-24.94 4.85,-7.79 10.14,-15.3 15.8,-22.48 20.31,-25.33 44.23,-47.54 70.97,-65.92 36.83,-25.02 78.03,-42.93 121.44,-52.82 14.91,-3.58 30.05,-6.05 45.32,-7.37l-11.71 1.75c-7.61,1.17 -18.87,3.14 -33.61,6.55 -43.16,10.21 -84.05,28.31 -120.62,53.39 -26.53,18.42 -50.2,40.62 -70.25,65.93 -5.69,7.08 -10.87,14.5 -15.58,22.26 -4.8,7.73 -8.9,16.4 -13.58,24.94l-28.21 53.39 -133.63 252.81c-50.11,94.4 -105.37,198.49 -165.1,311.38l-93.68 175.64c-34.53,61.87 -56.76,129.81 -65.45,200.13 -2.23,18.22 -3.53,36.54 -3.87,54.91 0,18.38 0,37.23 0,55.99l0 114.51c0,77.36 0,156.71 0,238.06 0,162.54 0,332.69 0,509.15l-2.93 -2.81 779.07 0c0.82,-0.57 -5.62,5.62 -2.93,2.81l0 -1.3 0 -10.06 1.05 -20.38 0 -10.06 1.52 -10.08 3.05 -20.26c2.23,-13.45 5.28,-26.72 9.12,-39.81 3.51,-13.23 7.86,-26.2 13.01,-38.87 26.49,-68.97 70.88,-129.64 128.61,-175.76 57.74,-46.1 126.84,-75.98 199.82,-86.55 35.05,-4.44 70.11,-6.12 105.4,-5.04l613.89 0 -2.89 2.92c0,-408.66 0,-791.35 0,-1135.84 0,-172.01 0,-334.34 0,-485.49 0.73,-18.58 0,-37.18 -2.4,-55.62 -2.64,-18.01 -8.17,-35.43 -16.57,-51.64 -15.84,-31.7 -41.05,-57.82 -72.03,-74.96 -14.88,-8.18 -30.97,-14.28 -47.53,-18.15 -16.32,-3.46 -33.14,-4.58 -49.7,-3.38 -33.13,2.81 -65.54,7.01 -96.99,10.42l-593.7 65.69 -159.37 17.46 -41.1 4.32 -10.9 1.66z"/>
   <path class="fil10" d="M6476.41 7407.85c0,0 3.36,0 9.12,-1.42 8.65,-1.51 16.8,-4.77 24.25,-9.6 11.29,-7.54 19.93,-18.77 24.25,-31.83 2.64,-8.17 3.84,-16.74 3.36,-25.31 -0.24,-9.48 -2.88,-18.77 -7.2,-27.16 -5.04,-9.6 -12.72,-17.64 -22.09,-23.31 -9.12,-5.66 -19.68,-8.74 -30.72,-8.9l-77.31 0 -176.94 0c-14.65,0.02 -29.05,5.47 -39.85,15.29 -11.04,9.82 -18,23.34 -19.69,38 -1.91,13.9 0.73,28.05 7.2,40.39 6.72,11.69 17.05,20.83 29.29,26 12.25,4.25 25.45,5.86 38.17,4.68l37.46 0 67.46 0 97.47 0.93 26.65 0c3.12,-0.05 6.01,0.17 9.13,0.7 -3.12,0.38 -6.01,0.57 -9.13,0.6l-26.65 0 -97.47 0.93 -67.46 0 -37.46 0c-6.48,0 -12.72,0 -19.69,0 -6.96,-0.53 -13.92,-2.11 -20.41,-4.68 -13.68,-5.62 -24.96,-15.6 -32.17,-28.35 -7.2,-13.4 -10.08,-28.76 -8.17,-43.92 1.69,-16.06 9.36,-30.91 21.37,-41.69 12.25,-10.81 27.85,-16.8 43.94,-16.83l176.94 0 77.31 0c17.04,0.34 33.13,7.22 44.89,19.23 12,12 18.73,28.17 18.96,45.04 0.24,8.96 -0.95,17.88 -3.84,26.36 -4.8,13.58 -14.16,25.16 -26.41,32.79 -7.69,4.75 -16.32,7.76 -25.21,8.77 -2.89,1.49 -6.01,2.57 -9.36,3.28z"/>
   <path class="fil7" d="M6455.04 7260.8c-33.37,2.92 -66.98,3.91 -100.36,2.92 -33.61,0.99 -67.22,0 -100.59,-2.92 33.37,-3.03 66.98,-4.04 100.59,-3.05 33.37,-0.99 66.98,0.02 100.36,3.05z"/>
   <path class="fil10" d="M5678.23 8719.43l-93.68 -6.8c24.46,-335.49 60.31,-536.2 109.59,-613.6 94.62,-148.7 188.78,-175.64 292.73,-193.34 96.99,-16.51 194.71,-12.65 289.29,-8.78l23.53 0.93c195.19,7.61 604.52,0.83 608.85,0.83l1.68 93.68c-4.32,0 -415.82,6.9 -613.89,-0.83l-23.29 -0.93c-89.79,-3.51 -182.69,-7.38 -270.08,7.6 -92.92,15.82 -154.86,33.97 -229.64,151.3 -22.61,35.03 -64.99,156.68 -95.09,569.93z"/>
   <polygon class="fil17" points="11571.87,4897.74 6958.49,4897.74 6958.49,7969.47 11571.87,7969.47 "/>
   <path class="fil10" d="M11516.66 7908.68c0,-19.78 -0.96,-1146.41 -2.4,-2941.53l2.4 2.35 -4508.23 0.7 3.12 -3.05c0,1045.57 0,2040.8 0,2941.53l-2.88 -2.81 4508.23 2.81 -4508.23 2.81 -3.37 0 0 -2.81c0,-900.73 0,-1895.97 0,-2941.53l0 -2.93 3.37 0 4508.47 0.6 2.4 0 0 2.45c-1.91,1795.01 -2.88,2921.75 -2.88,2941.42z"/>
   <g id="_1729515189136">
    <polygon class="fil19" points="7612.71,6545.6 7656.16,7424.2 11077.79,6712.46 11017.29,5796.65 "/>
   </g>
   <path class="fil7" d="M7871.76 7153.94l23.52 -81.96c45.86,19.71 96.52,24.54 145.26,13.8 52.34,-11.69 82.1,-36.51 75.14,-66.62 -14.16,-65.92 -210.79,13.23 -239.36,-118.14 -18,-84.8 44.42,-155.53 158.69,-179.99 55.46,-11.71 109.24,-10.53 150.06,4.68l-20.41 80.45c-37.94,-14.26 -79.23,-17 -118.84,-7.85 -55.46,11.71 -83.31,40.05 -76.83,69.55 13.93,67.8 211.27,-11.69 238.64,115.12 18.25,85.47 -45.38,156.43 -160.14,181.04 -66.98,14.5 -134.93,8.07 -175.73,-10.08z"/>
   <polygon class="fil7" points="8650.34,6596.04 8656.33,7026.03 8560.79,7046.53 8558.38,6871.46 8371.6,6911.5 8374.25,7087.15 8278.21,7107.17 8272.21,6677.07 8368.24,6656.47 8370.4,6825.44 8557.18,6785.4 8555.02,6616.42 "/>
   <polygon class="fil7" points="8747.81,6575.03 8843.6,6554.41 8849.6,6984.42 8753.57,7005.02 "/>
   <path class="fil7" d="M9296.87 6591.96c22.57,104.79 -40.57,187.36 -163.97,213.25l-91.95 19.66 1.91 118.38 -96.03 20.62 -5.76 -430.47 166.85 -35.13c103,-22.61 171.66,12.63 188.95,93.68zm-94.83 28.91c-8.64,-40.04 -40.81,-52.79 -89.31,-42.38l-74.67 16.03 1.68 149.31 80.67 -17.33c62.9,-13.83 93.4,-51.19 81.63,-105.97l0 0.34z"/>
   <path class="fil7" d="M9722.06 6500.2c22.33,105.37 -40.81,187.36 -163.97,213.24l-91.95 19.78 2.16 118.39 -96.03 20.62 -6.24 -430.01 166.86 -35.81c103.47,-22.14 171.9,13.1 189.18,93.8zm-95.08 29.03c-8.4,-40.17 -40.81,-52.92 -89.07,-42.49l-74.91 16.03 1.92 149.43 80.67 -17.34c63.15,-13.58 93.39,-50.94 81.63,-105.63l-0.24 0z"/>
   <polygon class="fil7" points="9792.4,6350.89 9888.44,6330.29 9894.43,6760.4 9798.4,6781 "/>
   <polygon class="fil7" points="10363.31,6228.94 10369.32,6658.92 10290.81,6675.8 10081.94,6450.27 10085.29,6719.59 9991.67,6739.85 9985.66,6309.75 10064.65,6292.77 10273.76,6518.4 10269.68,6249.08 "/>
   <path class="fil7" d="M10743.12 6355.75l87.15 -18.75 2.16 176.93c-38.65,43.15 -90.28,72.6 -146.93,83.96 -125.08,26.81 -219.43,-28.69 -242.48,-135.24 -30.01,-140.52 50.18,-269.32 206.23,-303.05 78.99,-16.98 142.12,-4.11 187.26,35.12l-56.41 70.28c-35.05,-27.06 -71.55,-32.68 -117.16,-22.86 -96.51,20.74 -143.57,103.52 -124.12,194.27 13.45,61.85 63.63,94.86 141.89,78 23.76,-4.85 45.86,-14.88 65.3,-29.41l-2.89 -129.26z"/>
   <polygon class="fil17" points="8294.54,5732.64 8294.54,6499.98 10244.71,6071.15 10243.99,5312.72 "/>
   <g id="_1729515183232">
    <polygon class="fil12" points="8294.54,5732.64 8294.54,6499.98 10244.47,6071.18 10243.99,5312.72 "/>
   </g>
   <polygon class="fil15" points="10468.22,5732.64 11158.7,5570.93 11131.32,5497.38 "/>
   <polygon class="fil15" points="7376.23,6249.34 7856.39,6136.94 7837.42,6085.87 "/>
   <polygon class="fil15" points="9019.82,7406.27 9710.29,7244.45 9683.17,7171.01 "/>
   <path class="fil15" d="M9935.25 5364.84c0,1.63 -368.76,89.81 -823.96,196.84 -455.44,107.03 -825.15,192.62 -825.63,190.99 -0.48,-1.63 368.52,-89.81 824.19,-196.85 455.67,-107.03 824.92,-192.64 825.4,-190.98z"/>
   <path class="fil15" d="M8289.49 6422.99c0,1.63 -157.98,35.13 -353.88,74.47 -195.66,39.33 -354.6,70.25 -355.07,68.62 -0.24,-1.63 158.21,-35.13 353.87,-74.6 195.91,-39.46 354.84,-70.15 355.08,-68.49z"/>
   <path class="fil15" d="M8295.74 6353.56c-0.48,-2.04 -0.72,-4.13 -0.72,-6.22 0,-4.8 0,-10.66 -0.73,-17.67 0,-16.28 0,-38.3 -0.72,-65.11 0,-55.87 -0.96,-131.4 -1.44,-214.87 -0.48,-83.5 -1.68,-159.15 -2.4,-214.9 0,-26.81 -0.47,-48.84 -0.72,-65.09l0 -17.81c-0.48,-2.01 -0.48,-4.06 0,-6.07 0.48,1.97 0.72,4 0.72,6.07 0,4.8 0.73,10.53 1.21,17.69 0.96,15.34 1.91,37.58 2.88,65.11 1.92,54.91 3.37,130.92 4.08,214.88 0.48,83.95 0,159.94 0,214.87 0,26.93 -0.72,48.95 -0.96,65.23 0,7.01 0,12.87 -0.72,17.67 0,2.09 -0.24,4.16 -0.48,6.22z"/>
   <path class="fil15" d="M6302.59 6352.32c0,0 -1.2,1.42 -4.32,3.62l-12.73 9.26c-11.76,8.07 -27.85,19.33 -48.26,33.26 -40.81,27.63 -97.71,65.35 -161.09,105.97 -63.63,40.64 -121.48,76.58 -163.97,102.23 -21.13,12.77 -38.42,23.43 -50.42,29.98l-13.68 7.73c-1.68,1.01 -3.36,1.85 -5.04,2.45 0,0 1.43,-1.39 4.32,-3.38l13.2 -8.91 49.22 -31.5 162.78 -103.74 162.05 -104.46 49.22 -31.5 13.68 -8.43c1.68,-1.05 3.37,-1.91 5.05,-2.59z"/>
   <path class="fil15" d="M6102.6 6405.3c0,0 -1.44,1.39 -4.32,3.62l-12.97 9.25c-11.52,7.98 -27.61,19.33 -48.26,33.16 -40.81,27.76 -97.72,65.32 -161.1,105.38 -63.38,40.06 -121.35,76.7 -163.85,102.34 -21.08,12.77 -38.3,23.43 -50.25,29.86l-13.81 7.85c-1.55,1.03 -3.26,1.82 -5.04,2.33 1.32,-1.27 2.76,-2.42 4.32,-3.38l13.26 -8.78 49.16 -31.62 162.85 -103.61 162.05 -104.46 49.22 -31.62 13.45 -8.3c1.68,-0.89 3.36,-1.56 5.28,-2z"/>
   <path class="fil15" d="M5116.71 6746.19c-1.81,-3.19 -3.02,-6.67 -3.65,-10.3 -1.88,-6.67 -4.45,-16.51 -7.38,-28.69 -7.68,-31.8 -11.61,-64.43 -11.71,-97.18 -0.15,-33.08 7.47,-65.73 22.26,-95.31 4.64,-8.86 10.2,-17.19 16.64,-24.83 2.16,-2.93 4.77,-5.5 7.73,-7.6 -7.5,11.09 -14.36,22.58 -20.62,34.43 -13.35,29.41 -20.17,61.36 -20.03,93.68 0.36,32.34 3.84,64.58 10.42,96.25 2.93,13.04 5.05,26.26 6.34,39.56z"/>
   <path class="fil15" d="M4639.96 7576.36c-0.44,-4.15 -0.44,-8.35 0,-12.53 0,-8.42 0,-20.6 0.7,-35.13 0.93,-30.1 3.17,-71.66 6.79,-117.11 3.63,-45.42 7.98,-87.1 11.72,-117.09 1.87,-14.98 3.5,-27.06 4.8,-35.13 0.43,-4.34 1.34,-8.61 2.69,-12.77 0.58,4.35 0.58,8.77 0,13.11l-3.05 35.14c-2.57,31.38 -6.07,72 -9.94,117.09 -3.87,45.09 -6.22,85.59 -8.46,117.11 -1.05,14.05 -1.99,25.86 -2.69,35.13 -0.36,4.16 -1.22,8.23 -2.57,12.17z"/>
   <path class="fil15" d="M5923.26 7803.67c0,1.3 -22.57,4.45 -57.62,15.82 -20.41,6.65 -40.58,14.74 -59.83,24.22 -47.41,23.56 -90.29,55.27 -126.71,93.68 -14.86,15.61 -28.6,32.22 -41.1,49.77 -21.18,30.11 -31.14,50.82 -32.19,50.25 1.75,-5.12 3.94,-10.06 6.55,-14.76 2.62,-5.72 5.6,-11.29 8.91,-16.64 3.74,-6.32 7.85,-13.68 13.23,-21.3 12.12,-18.12 25.66,-35.22 40.52,-51.19 18.38,-19.49 38.41,-37.4 59.82,-53.51 21.63,-15.68 44.58,-29.44 68.62,-41.1 19.69,-9.44 40.1,-17.26 60.98,-23.4 8.65,-2.93 17.05,-4.59 24.25,-6.34 6,-1.49 12.24,-2.67 18.48,-3.5 5.28,-1.18 10.81,-1.85 16.09,-2z"/>
   <path class="fil15" d="M7076.37 7096.78c-0.24,-1.68 -0.24,-3.36 0,-5.04 0,-3.58 0,-8.5 0,-14.75 0,-13.35 0,-32.43 -0.72,-56.8 -0.73,-49.65 -1.69,-120.96 -3.12,-208.89 -3.12,-176.71 -7.44,-420.17 -12.25,-689.13 -4.8,-268.99 -8.88,-512.91 -10.56,-689.25 -0.72,-88.18 -0.96,-159.6 -0.96,-208.92 0,-24.46 0,-43.55 0,-56.78l0 -14.76c0,-3.38 0,-5.05 0,-5.05 0.24,1.68 0.24,3.37 0,5.05 0,3.5 0,8.42 0,14.76 0,13.23 0,32.31 0.96,56.78 0.73,49.65 1.68,120.86 2.89,208.8 3.12,176.71 7.44,420.14 12.24,689.24 4.8,269.09 9.12,512.77 10.56,689.13 0.96,88.28 1.21,159.61 1.21,208.9 0,24.49 0,43.57 0,56.92 0,6.2 0,11.12 0,14.75 0,1.68 0,3.36 -0.24,5.04z"/>
   <path class="fil10" d="M10464.38 9144.96c309.7,-12.39 550.99,-273.58 538.5,-583.35 -12.49,-309.8 -273.45,-550.89 -583.4,-538.5 -309.7,12.39 -550.74,273.57 -538.5,583.35 12.49,309.79 273.7,550.89 583.4,538.5z"/>
   <path class="fil10" d="M9880.5 8574.98c0,0 0,1.05 0,1.52 -2.16,148.87 54.74,292.46 158.69,399.25 103.71,106.76 245.6,167.96 394.45,170.09 148.86,2.14 292.42,-54.92 399.26,-158.67 106.59,-103.73 167.81,-245.65 169.97,-394.5l0 -1.42 -1122.38 -16.28z"/>
   <path class="fil15" d="M10047.6 8578.89c-1.2,77.94 20.89,154.42 63.15,219.84 42.49,65.42 103.23,116.8 174.78,147.68 71.54,30.87 150.53,39.8 227.36,25.73 76.58,-14.09 147.41,-50.61 203.1,-104.89 55.94,-54.31 94.6,-123.95 110.92,-200.15 16.32,-76.2 9.6,-155.54 -19.21,-227.95 -28.81,-72.44 -78.26,-134.71 -142.36,-178.94 -64.34,-44.24 -140.21,-68.47 -217.99,-69.62 -104.44,-1.49 -205.27,38.56 -280.42,111.37 -74.91,72.82 -117.88,172.43 -119.32,276.94z"/>
   <path class="fil8" d="M10447.34 8190.58c-51.86,-0.74 -103.24,8.69 -151.25,27.8 -48.26,19.09 -91.95,47.49 -129.17,83.55 -36.97,36.06 -66.74,79.08 -87.15,126.59 -20.65,47.54 -31.45,98.62 -32.18,150.36l787.95 11.71c0.72,-51.76 -8.65,-103.18 -27.61,-151.3 -19.21,-48.14 -47.54,-92.02 -83.55,-129.19 -36.01,-37.14 -79.22,-66.81 -126.76,-87.32 -47.53,-20.53 -98.67,-31.48 -150.28,-32.22z"/>
   <path class="fil10" d="M10202.22 8581.05c-0.73,47.47 12.72,94.09 38.41,133.94 25.92,39.85 62.9,71.17 106.59,89.96 43.45,18.83 91.71,24.27 138.29,15.68 46.82,-8.59 89.8,-30.85 123.89,-63.93 34.09,-33.08 57.62,-75.53 67.46,-121.96 10.08,-46.43 6,-94.76 -11.52,-138.89 -17.53,-44.13 -47.78,-82.04 -86.91,-109 -39.14,-26.94 -85.47,-41.68 -132.77,-42.35 -63.62,-0.92 -125.07,23.5 -170.7,67.87 -45.61,44.34 -71.78,105.03 -72.74,168.67z"/>
   <path class="fil9" d="M9703.81 8738.3c0,0 -85.47,-796.27 739.69,-796.27 761.06,0 744.25,684.81 736.81,790.78l-119.32 0c0,0 60.98,-674.96 -617.49,-674.96 -678.71,0 -619.65,688.66 -619.65,688.66 0,0 -49.93,-2.47 -120.04,-8.21z"/>
   <path class="fil15" d="M10145.55 8024.5c-1.91,1.05 -4.07,1.84 -6.24,2.35 -4.56,1.52 -10.8,3.05 -18.72,5.85 -23.05,7.28 -45.38,16 -67.23,26.1 -72.02,33.11 -136.12,81.77 -187.02,142.51 -51.13,60.74 -88.11,132.04 -108.27,208.8 -6.24,23.09 -11.04,46.58 -14.16,70.25 -1.21,8.45 -1.69,15 -2.4,19.45 -0.24,2.3 -0.72,4.56 -1.2,6.8 -0.24,-2.26 -0.24,-4.55 0,-6.8 0,-4.56 0,-11.71 1.43,-19.66 2.17,-24.11 6.49,-47.97 12.25,-71.45 19.21,-77.91 56.18,-150.39 107.8,-211.82 51.61,-61.47 116.44,-110.25 189.9,-142.63 22.09,-9.85 44.9,-18.08 68.18,-24.59 8.17,-2.35 14.89,-3.62 19.21,-4.68 2.16,-0.41 4.32,-0.57 6.48,-0.47z"/>
   <path class="fil7" d="M8663.78 6106.57l-37.21 -206.23 139 -24.92 6.48 35.94 -95.31 17.11 8.88 49.14 88.11 -15.84 6.49 35.96 -88.11 15.82 8.64 49.24 95.79 -17.19 6.48 35.97 -139.24 24.99zm177.41 -244.71l54.26 62.83 1.44 -0.29 29.29 -77.78 49.21 -8.84 -44.41 114.42 82.83 91.56 -50.18 9.01 -54.98 -62.81 -1.44 0.29 -29.77 77.97 -49.93 8.96 46.1 -114.7 -81.86 -91.74 49.45 -8.88zm198.79 177.2l-36.98 -206.23 81.39 -14.6c15.6,-2.8 29.53,-2.2 41.53,1.81 12,3.91 22.09,10.63 29.53,20.14 7.92,9.43 12.97,20.98 15.37,34.69 2.4,13.68 1.68,26.29 -2.4,37.84 -4.08,11.52 -11.04,21.22 -21.12,29.07 -10.33,7.85 -23.29,13.18 -39.14,16.02l-51.86 9.31 -6.24 -34.95 44.9 -8.02c8.4,-1.52 15.13,-4.2 19.93,-8.07 5.04,-3.94 8.4,-8.74 10.08,-14.38 1.92,-5.73 2.16,-11.98 0.96,-18.77 -1.2,-6.84 -3.6,-12.58 -7.44,-17.19 -3.6,-4.68 -8.4,-7.95 -14.41,-9.77 -6,-1.9 -13.2,-2.09 -21.6,-0.57l-29.53 5.28 30.72 170.57 -43.69 7.83zm183.66 -32.94l-36.97 -206.23 81.38 -14.6c15.61,-2.79 29.29,-2.4 41.3,1.21 12,3.53 21.85,9.84 29.53,18.94 7.69,9.03 12.73,20.33 15.13,33.97 2.4,13.68 1.68,26 -2.64,36.92 -4.08,10.88 -11.28,19.93 -21.6,27.18 -10.08,7.23 -23.05,12.27 -38.89,15.11l-54.5 9.76 -6.49 -35.03 47.54 -8.52c8.4,-1.49 15.13,-3.87 20.17,-7.13 5.04,-3.27 8.64,-7.44 10.32,-12.49 1.92,-5.06 2.4,-10.97 1.21,-17.77 -1.21,-6.84 -3.6,-12.36 -7.2,-16.56 -3.6,-4.23 -8.4,-7.03 -14.41,-8.46 -6,-1.49 -13.2,-1.49 -21.6,0l-29.29 5.29 30.49 170.57 -43.45 7.83zm94.6 -113.82l67.95 84.65 -48.02 8.64 -66.98 -84.87 47.06 -8.42zm91.47 80.45l-36.98 -206.23 139 -24.94 6.49 35.97 -95.56 17.1 8.88 49.14 88.35 -15.82 6.24 35.94 -88.11 15.82 8.88 49.27 95.79 -17.2 6.23 35.94 -139.24 25.02zm259.04 -198.14c-2.16,-7.99 -6.72,-13.68 -13.68,-17.07 -6.96,-3.41 -15.61,-4.18 -26.17,-2.3 -6.96,1.3 -12.72,3.36 -17.29,6.26 -4.56,2.84 -7.92,6.22 -9.85,10.18 -1.91,3.94 -2.64,8.14 -1.68,12.59 0.48,3.69 1.68,6.79 4.08,9.24 2.16,2.45 5.04,4.39 8.4,5.86 3.36,1.42 7.2,2.5 11.28,3.27 4.33,0.69 8.65,1.15 13.45,1.34l19.21 1.1c9.36,0.41 18.25,1.62 26.17,3.63 8.16,2 15.36,4.97 21.84,8.88 6.49,3.91 11.77,8.91 15.85,15.03 4.32,6.08 7.2,13.42 8.88,22 2.16,12.63 0.95,24.15 -3.85,34.57 -4.56,10.33 -12.49,19.11 -23.53,26.36 -11.04,7.15 -24.73,12.24 -41.53,15.27 -16.8,2.98 -31.69,3.02 -44.9,0.15 -13.2,-2.91 -24.25,-8.72 -32.88,-17.49 -8.65,-8.86 -14.41,-20.67 -17.53,-35.43l42.26 -7.56c1.68,6.81 4.8,12.24 9.12,16.25 4.32,3.91 9.61,6.53 15.84,7.83 6.49,1.2 13.45,1.13 20.89,-0.22 7.45,-1.32 13.68,-3.56 18.73,-6.68 5.05,-3.14 8.88,-6.89 11.29,-11.26 2.16,-4.36 2.88,-9.03 2.16,-13.99 -0.96,-4.64 -2.89,-8.28 -6.24,-10.95 -3.37,-2.66 -7.69,-4.63 -13.45,-5.93 -5.52,-1.28 -12.24,-2.16 -20.16,-2.62l-23.29 -1.61c-18.25,-1.11 -33.13,-5.25 -44.89,-12.46 -11.52,-7.18 -18.73,-18.39 -21.37,-33.66 -2.4,-12.46 -0.96,-23.98 4.08,-34.5 5.04,-10.56 12.96,-19.52 24,-26.86 10.81,-7.35 23.77,-12.39 38.65,-15.08 15.36,-2.76 29.29,-2.52 41.53,0.67 12.49,3.17 22.81,8.86 30.73,17.05 8.17,8.18 13.2,18.38 15.61,30.63l-41.78 7.51zm185.82 -33.35c-2.16,-7.98 -6.72,-13.67 -13.68,-17.07 -6.97,-3.41 -15.61,-4.16 -26.17,-2.29 -6.96,1.28 -12.97,3.37 -17.29,6.27 -4.56,2.8 -7.92,6.22 -9.85,10.18 -1.92,3.94 -2.64,8.14 -1.68,12.55 0.48,3.73 1.68,6.8 4.08,9.25 2.16,2.45 5.04,4.42 8.4,5.88 3.36,1.4 6.96,2.5 11.28,3.25 4.32,0.72 8.65,1.15 13.45,1.36l19.21 1.11c9.36,0.38 18.24,1.61 26.16,3.6 8.17,2.01 15.37,4.97 21.85,8.88 6.49,3.91 11.77,8.93 15.84,15.03 4.33,6.1 7.2,13.42 8.88,22.01 2.17,12.63 0.96,24.15 -3.84,34.55 -4.56,10.34 -12.49,19.14 -23.53,26.39 -11.04,7.15 -24.73,12.24 -41.53,15.24 -16.8,2.99 -31.7,3.05 -44.9,0.16 -13.2,-2.9 -24.25,-8.74 -32.89,-17.5 -8.64,-8.83 -14.4,-20.64 -17.52,-35.41l42.26 -7.59c1.68,6.84 4.8,12.24 9.12,16.25 4.32,3.94 9.6,6.53 15.84,7.82 6.49,1.22 13.45,1.15 20.89,-0.19 7.44,-1.34 13.68,-3.55 18.73,-6.67 5.04,-3.15 8.88,-6.9 11.28,-11.26 2.17,-4.37 2.89,-9.06 2.17,-14.02 -0.96,-4.61 -2.89,-8.26 -6.24,-10.92 -3.37,-2.69 -7.69,-4.65 -13.45,-5.93 -5.53,-1.3 -12.24,-2.16 -20.17,-2.61l-23.28 -1.63c-18.25,-1.11 -33.13,-5.25 -44.9,-12.44 -11.52,-7.2 -18.72,-18.41 -21.37,-33.66 -2.4,-12.49 -0.95,-23.98 4.08,-34.53 5.05,-10.53 12.97,-19.49 24.01,-26.84 10.81,-7.37 23.76,-12.39 38.65,-15.1 15.36,-2.74 29.29,-2.52 41.53,0.67 12.49,3.17 22.81,8.86 30.73,17.05 8.16,8.18 13.2,18.41 15.61,30.65l-41.78 7.5z"/>
   <polygon class="fil4" points="13430.1,8786.94 12695.45,8786.94 12695.45,9372.67 13430.1,9372.67 "/>
   <polygon class="fil5" points="13430.1,8786.94 12695.45,8786.94 12695.45,9372.67 13430.1,9372.67 "/>
   <polygon class="fil4" points="12316.12,9372.74 12695.45,9372.74 12695.45,8787.04 12316.12,8787.04 "/>
   <polygon class="fil6" points="12316.12,9372.74 12695.45,9372.74 12695.45,8787.04 12316.12,8787.04 "/>
   <polygon class="fil7" points="13000.59,8913.52 13015.96,8913.52 13027.73,8913.52 13034.45,8903.79 13043.8,8913.52 13056.29,8893.46 13068.3,8913.52 13102.87,8913.52 13118.47,8913.52 13124.24,8900.17 13129.52,8913.52 13139.84,8913.52 13139.84,8786.94 13000.59,8786.94 "/>
   <path class="fil4" d="M12342.29 9332.31c27.85,-41.66 55.7,-83.45 83.55,-125.37l82.35 -125.97 81.63 -126.47c27.12,-42.32 53.77,-84.7 80.19,-127.17 -27.85,41.59 -55.7,83.36 -83.55,125.27l-82.35 125.97 -81.38 126.57c-27.38,42.25 -54.26,84.65 -80.43,127.17z"/>
   <path class="fil4" d="M12342.29 8827.32c26.41,42.52 53.06,84.92 79.95,127.17l81.15 126.47 82.35 125.97c27.85,41.92 55.7,83.72 83.54,125.37 -26.41,-42.52 -53.06,-84.92 -79.94,-127.17l-81.39 -126.57 -82.35 -125.97c-27.37,-41.91 -55.21,-83.69 -83.31,-125.27z"/>
  </g>
 </g>
</svg>
